<svg width="93" height="72" viewBox="0 0 93 72" fill="none" xmlns="http://www.w3.org/2000/svg">
<g style="mix-blend-mode:overlay">
<mask id="mask0_953_14669" style="mask-type:luminance" maskUnits="userSpaceOnUse" x="0" y="0" width="93" height="72">
<path d="M92.79 0H0V71.541H92.79V0Z" fill="white"/>
</mask>
<g mask="url(#mask0_953_14669)">
<path d="M67.6722 34.3205V36.2199H45.4894V34.3205C45.4894 34.0924 45.7175 32.1187 47.1606 30.2193C49.0601 27.7893 52.2487 26.4947 56.5038 26.4947C60.7589 26.4947 63.9476 27.7097 65.847 30.2193C67.444 32.1187 67.6722 34.0181 67.6722 34.3205ZM69.7254 34.1667C69.7254 34.0924 68.9667 24.3672 56.5834 24.3672C44.2001 24.3672 43.4414 34.0924 43.4414 34.1667V37.2068C43.4414 37.8116 43.8977 38.2679 44.5025 38.2679H68.7333C69.3434 38.2679 69.7944 37.8116 69.7944 37.2068L69.7201 34.1667H69.7254Z" fill="white"/>
<path d="M51.4128 15.099C51.4128 11.7564 53.7685 9.09832 56.5804 9.09832C59.3924 9.09832 61.7481 11.7564 61.7481 15.099C61.7481 18.4415 59.3924 21.0996 56.5804 21.0996C53.7685 21.0996 51.4128 18.4415 51.4128 15.099ZM56.5804 23.3015C60.6074 23.3015 63.95 19.6565 63.95 15.099C63.95 10.5414 60.6817 6.89648 56.5804 6.89648C52.4792 6.89648 49.2109 10.5414 49.2109 15.099C49.2109 19.6565 52.5535 23.3015 56.5804 23.3015Z" fill="white"/>
<path d="M36.747 18.8975C36.747 16.1651 38.7207 13.8837 41.0764 13.8837C43.4321 13.8837 45.4058 16.1598 45.4058 18.8975C45.4058 21.6352 43.4321 23.9113 41.0764 23.9113C38.7207 23.9113 36.747 21.6352 36.747 18.8975ZM41.0764 25.7365C44.4932 25.7365 47.2309 22.6964 47.2309 18.8975C47.2309 15.0987 44.4985 12.0586 41.0764 12.0586C37.6543 12.0586 34.9219 15.0987 34.9219 18.8975C34.9219 22.6964 37.6543 25.7365 41.0764 25.7365Z" fill="white"/>
<path d="M68.4306 18.8975C68.4306 16.1651 70.4043 13.8837 72.76 13.8837C75.1157 13.8837 77.0894 16.1598 77.0894 18.8975C77.0894 21.6352 75.1157 23.9113 72.76 23.9113C70.4043 23.9113 68.4306 21.6352 68.4306 18.8975ZM72.76 25.7365C76.1768 25.7365 78.9145 22.6964 78.9145 18.8975C78.9145 15.0987 76.1821 12.0586 72.76 12.0586C69.3379 12.0586 66.6055 15.0987 66.6055 18.8975C66.6055 22.6964 69.4175 25.7365 72.76 25.7365Z" fill="white"/>
<path d="M49.2043 68.5791C42.2168 68.5791 27.4778 62.8066 24.061 61.3635V46.6245L54.7487 52.5508C55.7355 52.5508 56.5738 53.3891 56.5738 54.376C56.5738 55.3628 55.7355 56.2011 54.7487 56.2011H37.4311C36.7467 56.2011 36.2161 56.7317 36.2161 57.4161C36.2161 58.1005 36.7467 58.6311 37.4311 58.6311H54.6744C56.1918 58.6311 57.4864 57.8724 58.2451 56.6574C59.5343 56.1268 64.32 54.376 70.7027 52.9328C75.3345 51.8664 77.9183 53.2353 79.1333 54.2221C74.1938 57.3365 55.9637 68.5791 49.2043 68.5791ZM11.3752 65.3109V43.5843H21.5514V65.3109H11.3752ZM81.9453 53.8401C81.7914 53.612 78.5285 48.752 70.0925 50.6514C65.0044 51.7921 60.9775 53.1557 58.7756 53.9197C58.5475 51.946 56.8762 50.349 54.823 50.2004L23.9071 44.1998V42.4542C23.9071 41.7698 23.3765 41.2393 22.6921 41.2393H10.2345C9.55009 41.2393 9.01953 41.7698 9.01953 42.4542V66.6107C9.01953 67.2952 9.55009 67.8257 10.2345 67.8257H22.7664C23.4508 67.8257 23.9814 67.2952 23.9814 66.6107V64.0269C28.6928 65.9263 42.1372 71.0144 49.1247 71.0144C57.6349 71.0144 80.5764 56.1268 81.5633 55.5167C82.1734 55.1347 82.322 54.376 81.9453 53.8454" fill="white"/>
<path d="M83.6182 34.8519H83.7721C83.7721 34.7776 83.162 26.6494 72.7576 26.6494C70.5558 26.6494 68.805 27.0314 67.4414 27.562C67.8977 28.0183 68.354 28.4745 68.6564 29.0051C69.8714 28.6231 71.2402 28.395 72.7576 28.395C76.3283 28.395 78.9864 29.4614 80.5834 31.5094C81.7984 33.1064 81.9523 34.698 82.0266 34.9262V36.5232H70.7839V37.7382C70.7839 37.9663 70.7097 38.1202 70.6301 38.2687H82.8595C83.3158 38.2687 83.6978 37.8867 83.6978 37.3562L83.7721 34.8466L83.6182 34.8519Z" fill="white"/>
<path d="M42.3701 37.7382V36.5232H31.812V34.9262C31.812 34.7723 32.0401 33.101 33.2551 31.5094C34.8521 29.4561 37.5102 28.395 41.0809 28.395C42.3701 28.395 43.5851 28.5488 44.6516 28.8512C45.0336 28.395 45.4103 27.8644 45.9408 27.4081C44.6516 26.9518 43.0546 26.6494 41.0809 26.6494C30.6766 26.6494 30.0664 34.7776 30.0664 34.8519V37.3562C30.0664 37.8124 30.4484 38.2687 30.8994 38.2687H42.524C42.4497 38.1149 42.3701 37.8867 42.3701 37.7382Z" fill="white"/>
</g>
</g>
</svg>
