<svg width="149" height="96" viewBox="0 0 149 96" fill="none" xmlns="http://www.w3.org/2000/svg">
<path opacity="0.75" d="M130.398 9.37041L132.888 15.6306L139.6 16.0493C141.253 16.149 141.89 18.2224 140.655 19.2592L135.457 23.5656L137.13 30.1049C137.528 31.66 135.796 33.0357 134.282 32.0189L128.705 28.49L123.009 32.0986C121.635 32.9759 119.882 31.6999 120.301 30.1249L121.974 23.5855L116.795 19.2791C115.541 18.2424 116.178 16.149 117.911 16.0692L124.563 15.6506L127.052 9.39034C127.65 7.87513 129.821 7.87513 130.418 9.39034L130.398 9.37041ZM129.94 18.043L128.725 14.9528L127.55 17.9234C127.331 18.6212 126.714 19.1396 125.937 19.1794L122.631 19.3788L125.12 21.4522C125.678 21.8909 125.977 22.6086 125.798 23.3463L124.981 26.5561L127.749 24.8017C128.327 24.4229 129.084 24.383 129.721 24.7817L132.529 26.5561L131.713 23.3463C131.553 22.6883 131.772 21.9706 132.31 21.4921L134.859 19.3589L131.533 19.1595C130.876 19.0997 130.239 18.681 129.98 18.0031L129.94 18.043ZM128.725 0C139.918 0 149 9.09129 149 20.2959C149 31.5005 139.918 40.5918 128.725 40.5918C119.086 40.5918 110.9 33.8331 108.909 24.6023H84.4913C82.898 32.0189 73.637 34.83 68.2198 29.3872C66.9252 28.0913 66.009 26.4564 65.6107 24.6023H46.77C42.249 24.6023 38.0865 26.7555 35.4376 30.3043C42.1095 33.9727 42.1095 43.6023 35.4376 47.2707C38.0865 50.7996 42.249 52.9528 46.77 52.9528H82.2408C87.8372 52.9528 93.0354 55.6044 96.3813 59.9905C101.958 59.6715 106.618 64.0976 106.618 69.66C106.618 74.6642 102.794 78.831 97.8551 79.2896C94.7681 84.9318 88.7932 88.6002 82.2408 88.6002H19.0665C17.3138 95.8772 8.19221 98.5288 2.83475 93.1658C-3.2397 87.085 1.10202 76.638 9.666 76.638C14.5056 76.638 18.5686 80.2266 19.2258 84.9517H82.2209C86.941 84.9517 91.2429 82.6191 93.852 78.831C85.7859 76.1196 84.9095 64.9748 92.4976 61.0472C89.8487 58.2361 86.1842 56.6012 82.2209 56.6012H46.7501C40.6557 56.6012 35.0592 53.4512 31.8129 48.4071C26.077 49.0052 21.1178 44.5194 21.1178 38.7775C21.1178 33.0357 26.077 28.5498 31.8129 29.1479C35.0592 24.1039 40.6557 20.9538 46.7501 20.9538H65.4912C66.7658 13.2581 76.2858 10.1081 81.8623 15.6904C83.2565 17.086 84.2125 18.9202 84.571 20.9538H108.451C108.072 9.47009 117.273 0 128.705 0H128.725ZM140.496 8.51311C134.003 2.01364 123.447 2.01364 116.955 8.51311C110.462 15.0126 110.462 25.5792 116.955 32.0588C123.447 38.5582 134.003 38.5582 140.496 32.0588C146.988 25.5593 146.988 15.0126 140.496 8.51311ZM13.948 82.021C10.164 78.2329 3.65132 80.9244 3.65132 86.2875C3.65132 91.6505 10.164 94.342 13.948 90.554C16.2982 88.1815 16.2982 84.3536 13.948 82.021ZM101.221 65.3735C97.4368 61.5855 90.9243 64.277 90.9243 69.6401C90.9243 75.0031 97.4368 77.7146 101.221 73.9066C103.571 71.5341 103.571 67.7062 101.221 65.3735ZM35.0592 34.511C31.2751 30.723 24.7625 33.4145 24.7625 38.7775C24.7625 44.1406 31.2552 46.852 35.0592 43.0441C37.4093 40.6715 37.4093 36.8436 35.0592 34.511ZM79.3131 18.2823C75.529 14.4942 69.0164 17.1857 69.0164 22.5488C69.0164 27.9118 75.5091 30.6233 79.3131 26.8153C81.6632 24.4428 81.6632 20.6348 79.3131 18.2823Z" fill="white"/>
</svg>
