<svg width="248" height="128" viewBox="0 0 248 128" fill="none" xmlns="http://www.w3.org/2000/svg">
<path d="M18.5 128L2.47853 113L34.5215 113L18.5 128Z" fill="#D9D0ED"/>
<path d="M3 113H248" stroke="#DADADA"/>
<path d="M20.1776 93.312C19.7456 93.776 19.2896 94.192 18.8096 94.56C18.3456 94.912 17.8416 95.224 17.2976 95.496C16.7536 95.752 16.1536 95.944 15.4976 96.072C14.8576 96.216 14.1456 96.288 13.3616 96.288C12.1296 96.288 10.9936 96.064 9.95357 95.616C8.91357 95.168 8.00957 94.56 7.24157 93.792C6.48957 93.008 5.89757 92.088 5.46557 91.032C5.03357 89.976 4.81757 88.84 4.81757 87.624C4.81757 86.424 5.02557 85.296 5.44157 84.24C5.87357 83.184 6.47357 82.264 7.24157 81.48C8.00957 80.68 8.92157 80.056 9.97757 79.608C11.0336 79.144 12.2016 78.912 13.4816 78.912C14.2496 78.912 14.9456 78.976 15.5696 79.104C16.2096 79.232 16.7936 79.416 17.3216 79.656C17.8496 79.88 18.3376 80.152 18.7856 80.472C19.2336 80.792 19.6576 81.144 20.0576 81.528L18.1616 83.712C17.4896 83.088 16.7776 82.584 16.0256 82.2C15.2736 81.816 14.4176 81.624 13.4576 81.624C12.6576 81.624 11.9136 81.784 11.2256 82.104C10.5536 82.408 9.96957 82.832 9.47357 83.376C8.97757 83.904 8.59357 84.528 8.32157 85.248C8.04957 85.968 7.91357 86.744 7.91357 87.576C7.91357 88.408 8.04957 89.192 8.32157 89.928C8.59357 90.648 8.97757 91.28 9.47357 91.824C9.96957 92.368 10.5536 92.8 11.2256 93.12C11.9136 93.424 12.6576 93.576 13.4576 93.576C14.4816 93.576 15.3616 93.384 16.0976 93C16.8336 92.6 17.5616 92.064 18.2816 91.392L20.1776 93.312ZM44.4356 87.576C44.4356 88.76 44.2196 89.88 43.7876 90.936C43.3556 91.992 42.7476 92.92 41.9636 93.72C41.1796 94.504 40.2516 95.128 39.1796 95.592C38.1076 96.056 36.9236 96.288 35.6276 96.288C34.3316 96.288 33.1476 96.064 32.0756 95.616C31.0036 95.152 30.0836 94.528 29.3156 93.744C28.5476 92.96 27.9476 92.04 27.5156 90.984C27.0836 89.928 26.8676 88.808 26.8676 87.624C26.8676 86.44 27.0836 85.32 27.5156 84.264C27.9476 83.208 28.5556 82.288 29.3396 81.504C30.1236 80.704 31.0516 80.072 32.1236 79.608C33.1956 79.144 34.3796 78.912 35.6756 78.912C36.9716 78.912 38.1556 79.144 39.2276 79.608C40.2996 80.056 41.2196 80.672 41.9876 81.456C42.7556 82.24 43.3556 83.16 43.7876 84.216C44.2196 85.272 44.4356 86.392 44.4356 87.576ZM41.3396 87.624C41.3396 86.808 41.1956 86.04 40.9076 85.32C40.6356 84.584 40.2436 83.944 39.7316 83.4C39.2356 82.856 38.6356 82.424 37.9316 82.104C37.2276 81.784 36.4596 81.624 35.6276 81.624C34.7956 81.624 34.0276 81.784 33.3236 82.104C32.6356 82.408 32.0436 82.832 31.5476 83.376C31.0516 83.904 30.6596 84.536 30.3716 85.272C30.0996 85.992 29.9636 86.76 29.9636 87.576C29.9636 88.392 30.0996 89.168 30.3716 89.904C30.6596 90.624 31.0516 91.256 31.5476 91.8C32.0596 92.344 32.6676 92.776 33.3716 93.096C34.0756 93.416 34.8436 93.576 35.6756 93.576C36.5076 93.576 37.2676 93.424 37.9556 93.12C38.6596 92.8 39.2596 92.376 39.7556 91.848C40.2516 91.304 40.6356 90.672 40.9076 89.952C41.1956 89.216 41.3396 88.44 41.3396 87.624ZM66.3622 83.952L61.0582 91.872H60.9622L55.7062 84V96H52.8022V79.2H55.9462L61.0582 87.144L66.1702 79.2H69.3142V96H66.3622V83.952ZM91.9981 83.952L86.6941 91.872H86.5981L81.3421 84V96H78.4381V79.2H81.5821L86.6941 87.144L91.8061 79.2H94.9501V96H91.9981V83.952ZM118.186 79.2V88.728C118.186 89.976 118.01 91.072 117.658 92.016C117.322 92.96 116.842 93.752 116.218 94.392C115.594 95.016 114.834 95.488 113.938 95.808C113.058 96.112 112.066 96.264 110.962 96.264C109.874 96.264 108.89 96.112 108.01 95.808C107.13 95.488 106.378 95.016 105.754 94.392C105.13 93.768 104.65 93 104.314 92.088C103.978 91.16 103.81 90.088 103.81 88.872V79.2H106.762V88.752C106.762 90.32 107.138 91.512 107.89 92.328C108.642 93.144 109.682 93.552 111.01 93.552C112.322 93.552 113.354 93.16 114.106 92.376C114.858 91.592 115.234 90.424 115.234 88.872V79.2H118.186ZM138.774 90.816V79.2H141.678V96H139.206L129.942 84.048V96H127.038V79.2H129.774L138.774 90.816ZM150.967 79.2H153.919V96H150.967V79.2ZM170.32 81.936V96H167.344V81.936H162.016V79.2H175.648V81.936H170.32ZM191.499 89.304V96H188.523V89.376L181.851 79.2H185.331L190.035 86.64L194.787 79.2H198.171L191.499 89.304Z" fill="#00B3BD"/>
<g opacity="0.75">
<mask id="mask0_25_123" style="mask-type:luminance" maskUnits="userSpaceOnUse" x="0" y="0" width="84" height="65">
<path d="M84 0H0V64.7639H84V0Z" fill="white"/>
</mask>
<g mask="url(#mask0_25_123)">
<path d="M60.2169 33.3745V35.094H40.1355V33.3745C40.1355 33.1679 40.342 31.3812 41.6484 29.6617C43.3679 27.462 46.2545 26.29 50.1065 26.29C53.9585 26.29 56.8452 27.3899 58.5646 29.6617C60.0104 31.3812 60.2169 33.1007 60.2169 33.3745ZM62.0756 33.2352C62.0756 33.1679 61.3888 24.364 50.1786 24.364C38.9683 24.364 38.2815 33.1679 38.2815 33.2352V35.9873C38.2815 36.5349 38.6946 36.9479 39.2421 36.9479H61.1775C61.7298 36.9479 62.1381 36.5349 62.1381 35.9873L62.0708 33.2352H62.0756Z" fill="#00B3BD"/>
<path d="M45.5013 15.9736C45.5013 12.9477 47.6338 10.5413 50.1794 10.5413C52.725 10.5413 54.8576 12.9477 54.8576 15.9736C54.8576 18.9995 52.725 21.4058 50.1794 21.4058C47.6338 21.4058 45.5013 18.9995 45.5013 15.9736ZM50.1794 23.399C53.8249 23.399 56.8508 20.0994 56.8508 15.9736C56.8508 11.8478 53.8922 8.5481 50.1794 8.5481C46.4667 8.5481 43.5081 11.8478 43.5081 15.9736C43.5081 20.0994 46.534 23.399 50.1794 23.399Z" fill="#00B3BD"/>
<path d="M32.2228 19.4115C32.2228 16.938 34.0095 14.8727 36.1421 14.8727C38.2746 14.8727 40.0613 16.9332 40.0613 19.4115C40.0613 21.8899 38.2746 23.9504 36.1421 23.9504C34.0095 23.9504 32.2228 21.8899 32.2228 19.4115ZM36.1421 25.6026C39.2352 25.6026 41.7136 22.8505 41.7136 19.4115C41.7136 15.9726 39.24 13.2205 36.1421 13.2205C33.0441 13.2205 30.5706 15.9726 30.5706 19.4115C30.5706 22.8505 33.0441 25.6026 36.1421 25.6026Z" fill="#00B3BD"/>
<path d="M60.9025 19.4115C60.9025 16.938 62.6892 14.8727 64.8217 14.8727C66.9543 14.8727 68.741 16.9332 68.741 19.4115C68.741 21.8899 66.9543 23.9504 64.8217 23.9504C62.6892 23.9504 60.9025 21.8899 60.9025 19.4115ZM64.8217 25.6026C67.9149 25.6026 70.3932 22.8505 70.3932 19.4115C70.3932 15.9726 67.9197 13.2205 64.8217 13.2205C61.7238 13.2205 59.2502 15.9726 59.2502 19.4115C59.2502 22.8505 61.7958 25.6026 64.8217 25.6026Z" fill="#00B3BD"/>
<path d="M44.5426 62.0826C38.217 62.0826 24.8743 56.8569 21.7811 55.5505V42.2077L49.5618 47.5727C50.4551 47.5727 51.214 48.3316 51.214 49.2249C51.214 50.1183 50.4551 50.8772 49.5618 50.8772H33.8847C33.2651 50.8772 32.7848 51.3575 32.7848 51.977C32.7848 52.5966 33.2651 53.0769 33.8847 53.0769H49.4945C50.8682 53.0769 52.0401 52.3901 52.727 51.2902C53.8941 50.8099 58.2264 49.2249 64.0044 47.9185C68.1975 46.9531 70.5366 48.1923 71.6364 49.0856C67.1648 51.905 50.6617 62.0826 44.5426 62.0826ZM10.2971 59.1239V39.4556H19.5093V59.1239H10.2971ZM74.182 48.7398C74.0428 48.5333 71.0889 44.1337 63.4521 45.8532C58.846 46.8858 55.2005 48.1202 53.2073 48.8119C53.0007 47.0251 51.4878 45.5794 49.629 45.4449L21.6418 40.0127V38.4325C21.6418 37.8129 21.1615 37.3326 20.5419 37.3326H9.26444C8.64485 37.3326 8.16455 37.8129 8.16455 38.4325V60.3007C8.16455 60.9203 8.64485 61.4006 9.26444 61.4006H20.6092C21.2288 61.4006 21.7091 60.9203 21.7091 60.3007V57.9616C25.9741 59.6811 38.145 64.2872 44.4706 64.2872C52.1746 64.2872 72.9429 50.8099 73.8362 50.2576C74.3886 49.9117 74.5231 49.2249 74.182 48.7446" fill="#00B3BD"/>
<path d="M74.6564 33.8549H74.7957C74.7957 33.7877 74.2433 26.4294 64.8246 26.4294C62.8313 26.4294 61.2463 26.7753 60.012 27.2556C60.425 27.6686 60.8381 28.0817 61.1119 28.562C62.2117 28.2162 63.4509 28.0096 64.8246 28.0096C68.057 28.0096 70.4633 28.975 71.909 30.829C73.0089 32.2747 73.1482 33.7156 73.2155 33.9222V35.3679H63.0379V36.4678C63.0379 36.6743 62.9706 36.8136 62.8986 36.9481H73.9695C74.3826 36.9481 74.7284 36.6022 74.7284 36.1219L74.7957 33.8501L74.6564 33.8549Z" fill="#00B3BD"/>
<path d="M37.3181 36.4678V35.3679H27.7601V33.9222C27.7601 33.7829 27.9667 32.2699 29.0665 30.829C30.5123 28.9702 32.9186 28.0096 36.151 28.0096C37.3181 28.0096 38.418 28.1489 39.3834 28.4227C39.7293 28.0096 40.0703 27.5293 40.5506 27.1163C39.3834 26.7032 37.9377 26.4294 36.151 26.4294C26.7323 26.4294 26.1799 33.7877 26.1799 33.8549V36.1219C26.1799 36.535 26.5257 36.9481 26.934 36.9481H37.4574C37.3902 36.8088 37.3181 36.6022 37.3181 36.4678Z" fill="#00B3BD"/>
</g>
</g>
</svg>
