<svg width="247" height="120" viewBox="0 0 247 120" fill="none" xmlns="http://www.w3.org/2000/svg">
<path d="M18.5 120L2.47853 105L34.5215 105L18.5 120Z" fill="#D9D0ED"/>
<path d="M2 105H247" stroke="#DADADA"/>
<path d="M18.4414 76.84C18.4414 77.784 18.2654 78.616 17.9134 79.336C17.5614 80.056 17.0814 80.656 16.4734 81.136C15.8654 81.616 15.1534 81.984 14.3374 82.24C13.5214 82.48 12.6494 82.6 11.7214 82.6H8.38544V88H5.43344V71.2H12.0574C13.0334 71.2 13.9134 71.336 14.6974 71.608C15.4974 71.864 16.1694 72.24 16.7134 72.736C17.2734 73.232 17.6974 73.824 17.9854 74.512C18.2894 75.2 18.4414 75.976 18.4414 76.84ZM15.4414 76.912C15.4414 75.904 15.1134 75.152 14.4574 74.656C13.8014 74.144 12.9214 73.888 11.8174 73.888H8.38544V79.936H11.8174C12.9374 79.936 13.8174 79.664 14.4574 79.12C15.1134 78.56 15.4414 77.824 15.4414 76.912ZM26.2647 88V71.2H29.2167V85.312H38.0487V88H26.2647ZM54.6121 71.08L62.0041 88H58.8841L57.1801 83.944H49.2361L47.5081 88H44.4841L51.8761 71.08H54.6121ZM56.1001 81.328L53.1961 74.608L50.3161 81.328H56.1001ZM81.421 82.816V71.2H84.325V88H81.853L72.589 76.048V88H69.685V71.2H72.421L81.421 82.816ZM105.902 71.2V73.84H96.3979V78.208H104.822V80.848H96.3979V85.36H106.022V88H93.4459V71.2H105.902ZM121.428 73.936V88H118.452V73.936H113.124V71.2H126.756V73.936H121.428Z" fill="#B0BC25"/>
<g opacity="0.75">
<mask id="mask0_25_122" style="mask-type:luminance" maskUnits="userSpaceOnUse" x="0" y="0" width="81" height="61">
<path d="M80.2449 0H0V60.1194H80.2449V0Z" fill="white"/>
</mask>
<g mask="url(#mask0_25_122)">
<path d="M73.2737 29.1633C72.274 27.8941 70.5444 27.471 69.0553 28.1471L67.2924 28.9435C66.4338 29.3334 65.7453 30.0095 65.3554 30.8556C64.9655 31.7018 64.8991 32.6517 65.1728 33.5476L65.654 35.1321C65.8199 35.6672 65.654 36.2437 65.2475 36.6378L63.5593 38.214C62.6509 39.0684 62.12 40.263 62.12 41.4991V43.0131C62.12 43.4279 61.979 43.8261 61.7135 44.1496L60.0834 46.1821C59.5193 46.8872 59.1667 47.7334 59.0672 48.621C59.0008 49.2639 58.5528 49.8073 57.9348 50.0189L54.9234 51.0517C54.2681 51.2798 53.5422 51.0683 53.1191 50.5249L50.9705 47.779C50.3442 46.9743 49.9958 45.9747 49.9958 44.9584V38.5707C49.9958 37.8324 49.6556 37.1397 49.0791 36.6668C48.4901 36.194 47.731 36.0156 46.9968 36.1732L42.8863 37.0194C42.1023 37.1812 41.2811 36.8742 40.8082 36.2313L38.2448 32.7678C37.9213 32.3364 37.7554 31.8263 37.7554 31.287V29.5698C37.7554 28.5702 38.3485 27.6659 39.2859 27.2636L45.6446 24.4845C47.2996 23.7628 49.1911 23.9162 50.6967 24.9076C51.6964 25.5671 52.9034 25.874 54.1063 25.7952L55.4627 25.6957C55.9687 25.6625 56.4623 25.7952 56.8771 26.0773L57.2421 26.3303C57.8643 26.7534 58.6399 26.9069 59.3741 26.7534C60.1083 26.5999 60.7554 26.1437 61.1453 25.509C61.9126 24.2481 61.4937 22.5972 60.212 21.834L51.6425 16.7445C50.7424 16.2095 49.6556 16.0767 48.6477 16.3712L44.7279 17.5161H44.7031C44.4376 17.3211 44.2717 17.0266 44.2468 16.7031C44.2219 16.3795 44.3214 16.0684 44.5454 15.8237L46.8019 13.3599C48.9422 11.0288 51.8706 9.54797 55.0479 9.19955L61.2697 8.50685C63.3436 9.66826 65.2475 11.1076 66.9606 12.7916C69.441 15.2306 71.3864 18.0677 72.751 21.2284C74.1157 24.3974 74.8291 27.7655 74.8706 31.2331L73.2488 29.1675H73.2737V29.1633ZM28.7959 50.3217C26.3155 47.8827 24.3701 45.0455 23.0055 41.8849C22.7317 41.2419 22.4829 40.5907 22.263 39.9437L28.937 44.3653C30.2933 45.2695 31.1602 46.7628 31.2515 48.3722L31.4921 52.6569C30.5505 51.9435 29.6462 51.1678 28.7876 50.3341L28.7959 50.3258V50.3217ZM16.0329 24.0822C15.025 25.1979 12.6897 26.1644 10.8397 25.845C9.70737 25.6501 8.90268 25.0071 8.46716 23.9287C7.87816 22.4977 7.66662 21.3611 7.46752 20.3532C7.24353 19.1835 7.03614 18.1175 6.26878 17.2216C6.89926 17.0764 7.67491 16.9229 8.52523 16.8068C11.1384 16.4749 13.2123 16.7238 14.5065 17.5285C16.2693 18.636 16.7961 19.9923 16.9288 20.9339C17.0865 22.0787 16.7463 23.2816 16.0287 24.0739L16.037 24.0822H16.0329ZM74.2567 20.6021C72.8174 17.2547 70.7517 14.2475 68.1261 11.6592C65.5047 9.07512 62.4352 7.05095 59.0298 5.63652C55.5 4.17232 51.7503 3.4257 47.8886 3.4257C46.6484 3.4257 45.3999 3.50866 44.1763 3.66213C43.7366 3.7202 43.4255 4.1184 43.4794 4.54978C43.5375 4.98116 43.944 5.2881 44.3795 5.23418C45.5285 5.089 46.7106 5.01434 47.8845 5.01434C51.5305 5.01434 55.0645 5.71533 58.3952 7.10487C58.4782 7.13806 58.5611 7.17954 58.6441 7.20857L54.882 7.63165C51.3189 8.02985 48.0255 9.689 45.6197 12.3146L43.3633 14.7785C42.8407 15.3467 42.5876 16.1016 42.6623 16.869C42.737 17.6322 43.1352 18.3332 43.7449 18.7936C44.1597 19.1005 44.7113 19.2001 45.2091 19.0549L49.1288 17.9101C49.7013 17.74 50.3193 17.8189 50.8253 18.1216L59.3948 23.2111C59.9175 23.518 60.0917 24.1941 59.7765 24.7126C59.6188 24.9822 59.3534 25.1606 59.0506 25.227C58.7436 25.2933 58.4284 25.227 58.1754 25.0569L57.8104 24.8039C57.1011 24.3144 56.2217 24.0739 55.3548 24.1361L53.9985 24.2356C53.1564 24.2937 52.302 24.0739 51.601 23.6176C49.6307 22.3235 47.1586 22.1202 44.9934 23.0659L38.6347 25.845C37.1207 26.5045 36.1543 27.9812 36.1543 29.5988V31.3161C36.1543 32.1871 36.428 33.0208 36.9548 33.7301L39.5182 37.1936C40.3602 38.3384 41.8161 38.8859 43.2306 38.5997L47.3411 37.7536C47.6066 37.6955 47.872 37.7619 48.0794 37.9319C48.2868 38.0937 48.403 38.3384 48.403 38.608V44.9958C48.403 46.3521 48.8675 47.7043 49.7095 48.7745L51.8581 51.5204C52.4762 52.3168 53.4302 52.7565 54.4049 52.7565C54.7617 52.7565 55.1142 52.6984 55.4627 52.5781L58.474 51.5453C59.6728 51.1305 60.5438 50.0645 60.6724 48.8201C60.7388 48.227 60.971 47.667 61.3526 47.1941L62.9828 45.1617C63.4639 44.5602 63.7335 43.8053 63.7335 43.038V41.5281C63.7335 40.7235 64.0737 39.9436 64.6668 39.392L66.355 37.8158C67.2136 37.0111 67.5371 35.8248 67.197 34.709L66.7159 33.1245C66.3923 32.0502 66.9233 30.8888 67.9644 30.416L69.7272 29.6196C70.5195 29.2629 71.4569 29.4827 71.992 30.1629L74.8042 33.7384C74.572 36.559 73.8958 39.2966 72.7718 41.9056C71.4154 45.0663 69.4618 47.9034 66.9813 50.3424C64.5009 52.7814 61.614 54.6894 58.3952 56.0333C55.0686 57.4145 51.5305 58.1238 47.8845 58.1238C44.2385 58.1238 40.7045 57.427 37.3737 56.0333C35.9012 55.4236 34.5034 54.6935 33.1719 53.8391L32.8567 48.3016C32.7406 46.1945 31.6082 44.245 29.8287 43.067L21.5745 37.6042C21.1099 35.6464 20.8818 33.6306 20.8818 31.5815C20.8818 26.8903 22.2381 21.4939 24.337 17.8354C26.2159 14.5586 28.63 11.9662 31.5169 10.1121C31.8902 9.87566 31.9981 9.38206 31.7492 9.0129C31.5086 8.64788 31.0067 8.54004 30.6334 8.78476C27.6221 10.7094 25.1002 13.3848 23.1175 16.7404C21.7279 14.4383 21.2385 12.3934 21.6533 10.6347C22.0681 8.88017 23.3995 7.38278 25.5896 6.1716C26.9709 5.41669 28.0535 5.06412 29.8993 4.79036C31.2722 4.58711 32.6866 4.48341 34.1094 4.48341H38.0208C37.2535 5.94761 36.2414 8.62715 36.4239 12.4515C36.4239 12.6381 36.399 16.027 34.0679 18.0345C32.5041 19.3826 30.2145 19.8472 27.2695 19.4158C26.8298 19.3494 26.4192 19.6522 26.3528 20.0836C26.2865 20.515 26.5934 20.9215 27.0331 20.9878C27.817 21.0998 28.5719 21.1579 29.2812 21.1579C31.6787 21.1579 33.6489 20.5067 35.1463 19.2167C38.0913 16.6657 38.0416 12.5842 38.0416 12.4142V12.3893C37.9088 9.61849 38.4812 7.53625 38.9748 6.2753C39.5141 4.91065 40.0906 4.19306 40.0989 4.18476C40.298 3.94833 40.3395 3.6248 40.2068 3.34689C40.074 3.06898 39.792 2.89062 39.4809 2.89062H34.1218C32.6161 2.89062 31.1187 3.00677 29.6628 3.22246C27.6345 3.53355 26.3611 3.93589 24.8181 4.79036C22.2049 6.22137 20.6163 8.06718 20.0978 10.278C19.5337 12.6589 20.2637 15.3757 22.2547 18.3581C21.0809 20.7638 20.2057 23.6176 19.7162 26.5253C19.2351 25.9321 18.5838 25.256 17.7211 24.5426C18.4262 23.4683 18.7207 22.1036 18.5382 20.7555C18.281 18.9512 17.1653 17.3418 15.3858 16.2261C13.7391 15.1932 11.3499 14.878 8.29709 15.2679C6.09042 15.5541 4.36075 16.1224 4.28609 16.139C3.97915 16.2385 3.76346 16.504 3.73857 16.8234C3.70539 17.1386 3.8713 17.4414 4.15336 17.5866C5.43506 18.2793 5.59268 19.0757 5.89962 20.6684C6.09872 21.693 6.33929 22.9705 6.99051 24.5467C7.64173 26.1395 8.88609 27.1391 10.5784 27.4336C10.9186 27.4917 11.2628 27.5249 11.6113 27.5249C13.4819 27.5249 15.4066 26.7368 16.6468 25.7289C17.7377 26.629 18.4345 27.4502 18.8203 27.9978C19.1355 28.4291 19.3097 28.761 19.401 28.9476C19.318 29.8353 19.2765 30.7105 19.2765 31.5732C19.2765 35.3685 20.0273 39.0519 21.5247 42.5236C22.964 45.871 25.0297 48.8782 27.6553 51.4665C30.285 54.0506 33.3462 56.0748 36.7516 57.4892C40.2814 58.9534 44.0311 59.7 47.8928 59.7C51.7545 59.7 55.5 58.9617 59.034 57.4892C62.4394 56.0748 65.5005 54.0423 68.1303 51.4665C70.76 48.8823 72.8215 45.8751 74.2609 42.5236C75.7499 39.0519 76.509 35.3685 76.509 31.5732C76.509 27.7779 75.7582 24.0946 74.2609 20.6228V20.5979L74.2567 20.6021Z" fill="#B0BC25"/>
</g>
</g>
</svg>
