<svg width="247" height="111" viewBox="0 0 247 111" fill="none" xmlns="http://www.w3.org/2000/svg">
<path d="M18.5 111L2.47853 96L34.5215 96L18.5 111Z" fill="#D9D0ED"/>
<path d="M2 96H247" stroke="#DADADA"/>
<path d="M17.4336 68.84C17.4336 69.784 17.2576 70.616 16.9056 71.336C16.5536 72.056 16.0736 72.656 15.4656 73.136C14.8576 73.616 14.1456 73.984 13.3296 74.24C12.5136 74.48 11.6416 74.6 10.7136 74.6H7.37763V80H4.42563V63.2H11.0496C12.0256 63.2 12.9056 63.336 13.6896 63.608C14.4896 63.864 15.1616 64.24 15.7056 64.736C16.2656 65.232 16.6896 65.824 16.9776 66.512C17.2816 67.2 17.4336 67.976 17.4336 68.84ZM14.4336 68.912C14.4336 67.904 14.1056 67.152 13.4496 66.656C12.7936 66.144 11.9136 65.888 10.8096 65.888H7.37763V71.936H10.8096C11.9296 71.936 12.8096 71.664 13.4496 71.12C14.1056 70.56 14.4336 69.824 14.4336 68.912ZM37.7129 63.2V65.84H28.2089V70.208H36.6329V72.848H28.2089V77.36H37.8329V80H25.2569V63.2H37.7129ZM62.959 71.576C62.959 72.76 62.743 73.88 62.311 74.936C61.879 75.992 61.271 76.92 60.487 77.72C59.703 78.504 58.775 79.128 57.703 79.592C56.631 80.056 55.447 80.288 54.151 80.288C52.855 80.288 51.671 80.064 50.599 79.616C49.527 79.152 48.607 78.528 47.839 77.744C47.071 76.96 46.471 76.04 46.039 74.984C45.607 73.928 45.391 72.808 45.391 71.624C45.391 70.44 45.607 69.32 46.039 68.264C46.471 67.208 47.079 66.288 47.863 65.504C48.647 64.704 49.575 64.072 50.647 63.608C51.719 63.144 52.903 62.912 54.199 62.912C55.495 62.912 56.679 63.144 57.751 63.608C58.823 64.056 59.743 64.672 60.511 65.456C61.279 66.24 61.879 67.16 62.311 68.216C62.743 69.272 62.959 70.392 62.959 71.576ZM59.863 71.624C59.863 70.808 59.719 70.04 59.431 69.32C59.159 68.584 58.767 67.944 58.255 67.4C57.759 66.856 57.159 66.424 56.455 66.104C55.751 65.784 54.983 65.624 54.151 65.624C53.319 65.624 52.551 65.784 51.847 66.104C51.159 66.408 50.567 66.832 50.071 67.376C49.575 67.904 49.183 68.536 48.895 69.272C48.623 69.992 48.487 70.76 48.487 71.576C48.487 72.392 48.623 73.168 48.895 73.904C49.183 74.624 49.575 75.256 50.071 75.8C50.583 76.344 51.191 76.776 51.895 77.096C52.599 77.416 53.367 77.576 54.199 77.576C55.031 77.576 55.791 77.424 56.479 77.12C57.183 76.8 57.783 76.376 58.279 75.848C58.775 75.304 59.159 74.672 59.431 73.952C59.719 73.216 59.863 72.44 59.863 71.624ZM84.3336 68.84C84.3336 69.784 84.1576 70.616 83.8056 71.336C83.4536 72.056 82.9736 72.656 82.3656 73.136C81.7576 73.616 81.0456 73.984 80.2296 74.24C79.4136 74.48 78.5416 74.6 77.6136 74.6H74.2776V80H71.3256V63.2H77.9496C78.9256 63.2 79.8056 63.336 80.5896 63.608C81.3896 63.864 82.0616 64.24 82.6056 64.736C83.1656 65.232 83.5896 65.824 83.8776 66.512C84.1816 67.2 84.3336 67.976 84.3336 68.84ZM81.3336 68.912C81.3336 67.904 81.0056 67.152 80.3496 66.656C79.6936 66.144 78.8136 65.888 77.7096 65.888H74.2776V71.936H77.7096C78.8296 71.936 79.7096 71.664 80.3496 71.12C81.0056 70.56 81.3336 69.824 81.3336 68.912ZM92.1569 80V63.2H95.1089V77.312H103.941V80H92.1569ZM124.272 63.2V65.84H114.768V70.208H123.192V72.848H114.768V77.36H124.392V80H111.816V63.2H124.272Z" fill="#AD3088"/>
<g opacity="0.75">
<path d="M49.0037 6.91166C44.651 6.91166 41.1512 10.4994 41.1512 14.963C41.1512 19.4266 44.651 23.0144 49.0037 23.0144C53.3564 23.0144 56.8562 19.4266 56.8562 14.963C56.8562 10.4994 53.3564 6.91166 49.0037 6.91166ZM49.0037 24.9497C43.6106 24.9497 39.2579 20.49 39.2579 14.9592C39.2579 9.42843 43.6106 4.96863 49.0037 4.96863C54.3968 4.96863 58.7495 9.42843 58.7495 14.9592C58.7495 20.49 54.3968 24.9497 49.0037 24.9497Z" fill="#AD3088"/>
<path d="M33.8622 40.276H64.1399C64.1399 39.6947 64.0443 39.1133 63.9525 38.5281C63.4782 36.0075 62.4378 33.5825 60.8314 31.5439C59.1293 29.4096 56.953 27.7611 54.4936 26.7895C51.1812 28.6331 47.0198 28.6331 43.7074 26.7895C41.2481 27.7611 38.9761 29.4096 37.3696 31.5439C35.7594 33.5787 34.719 36.0037 34.2485 38.5281C34.0611 39.1095 33.9655 39.6908 33.8699 40.276M66.0409 42.2152H31.9766V41.2437C31.9766 40.2722 32.0722 39.2051 32.2596 38.1418C32.7339 35.231 33.9617 32.5154 35.7594 30.2855C37.7483 27.7649 40.3951 25.8257 43.4244 24.7585L43.8031 24.5635L44.1817 24.7585C47.1154 26.6021 50.8064 26.6021 53.7401 24.7585L54.1187 24.5635L54.4974 24.7585C57.5267 25.8257 60.1735 27.7649 62.1624 30.2855C63.9601 32.5154 65.1917 35.3305 65.6622 38.1418C65.8496 39.2089 65.9452 40.1804 65.9452 41.2437V42.2152H66.0409Z" fill="#AD3088"/>
<path d="M75.2116 9.81861C71.7118 9.81861 68.87 12.7293 68.87 16.3171C68.87 19.9048 71.708 22.8155 75.2116 22.8155C78.7152 22.8155 81.5494 19.9048 81.5494 16.3171C81.5494 12.7293 78.7113 9.81861 75.2116 9.81861ZM75.2116 24.7547C70.6715 24.7547 66.9805 20.9719 66.9805 16.3171C66.9805 11.6622 70.6715 7.87939 75.2116 7.87939C79.7517 7.87939 83.4427 11.6622 83.4427 16.3171C83.4427 20.9719 79.7517 24.7547 75.2116 24.7547Z" fill="#AD3088"/>
<path d="M68.1178 37.3655H87.6093C87.2306 32.5155 84.2013 28.247 79.6612 26.5028C76.9188 28.0557 73.5108 28.0557 70.6728 26.5028C68.4964 27.3749 66.5113 28.9278 65.0885 30.867C66.6031 32.8062 67.5479 35.0361 68.1178 37.3655ZM89.5026 39.3047H66.5113L66.4157 38.5282C65.9414 36.0076 64.901 33.5827 63.2946 31.544L62.8203 30.9626L63.199 30.3813C64.901 27.6656 67.5517 25.5313 70.4854 24.5598L70.864 24.3647L71.2427 24.5598C73.6064 26.0133 76.6357 26.0133 79.0033 24.5598L79.382 24.3647L79.7607 24.5598C85.5324 26.5985 89.319 32.1254 89.4108 38.4288L89.5064 39.3009L89.5026 39.3047Z" fill="#AD3088"/>
<path d="M22.7936 9.81861C19.2939 9.81861 16.452 12.7293 16.452 16.3171C16.452 19.9048 19.29 22.8155 22.7936 22.8155C26.2972 22.8155 29.1314 19.9048 29.1314 16.3171C29.1314 12.7293 26.2934 9.81861 22.7936 9.81861ZM22.7936 24.7547C18.2535 24.7547 14.5625 20.9719 14.5625 16.3171C14.5625 11.6622 18.2535 7.87939 22.7936 7.87939C27.3337 7.87939 31.0247 11.6622 31.0247 16.3171C31.0247 20.9719 27.3337 24.7547 22.7936 24.7547Z" fill="#AD3088"/>
<path d="M10.3934 37.3654H29.8849C30.4548 35.0361 31.3996 32.8062 32.8186 30.8669C31.3996 28.9277 29.5063 27.3748 27.2343 26.5028C24.4919 28.0557 21.0839 28.0557 18.2458 26.5028C13.8931 28.2469 10.7721 32.5155 10.3934 37.3654ZM31.4952 39.3046H8.50391V38.3331C8.50391 32.1253 12.3823 26.5984 18.154 24.4641L18.5327 24.269L18.9114 24.4641C21.2751 25.9176 24.3044 25.9176 26.672 24.4641L27.0507 24.269L27.4294 24.4641C30.4586 25.5312 33.0137 27.5661 34.7157 30.2817L35.0944 30.8631L34.6201 31.4445C33.0098 33.4832 31.9695 35.9043 31.499 38.4287V39.3008L31.4952 39.3046Z" fill="#AD3088"/>
</g>
</svg>
