<svg width="85" height="77" viewBox="0 0 85 77" fill="none" xmlns="http://www.w3.org/2000/svg">
<g style="mix-blend-mode:overlay" clip-path="url(#clip0_953_14664)">
<path d="M42.4539 22.7207C33.7841 22.7207 26.8125 29.8437 26.8125 38.4994C26.8125 47.1551 33.7841 54.2781 42.4539 54.2781C51.1238 54.2781 58.0954 47.2453 58.0954 38.4994C58.0954 29.7535 51.1238 22.7207 42.4539 22.7207ZM54.5202 33.0896H48.353C47.9955 30.2945 47.2804 27.6797 46.2973 25.7863C49.9618 26.8682 53.0007 29.5732 54.5202 33.0896ZM55.6821 38.4994C55.6821 39.5814 55.5034 40.5732 55.3246 41.565H48.5317C48.6211 40.5732 48.6211 39.5814 48.6211 38.4994C48.6211 37.5076 48.6211 36.5158 48.5317 35.4338H55.3246C55.5927 36.4256 55.6821 37.4174 55.6821 38.4994ZM42.4539 51.8437C41.292 51.8437 39.7725 48.8682 39.0575 43.9092H45.9397C45.1353 48.8682 43.6159 51.8437 42.4539 51.8437ZM38.7894 41.565C38.7 40.5732 38.7 39.5814 38.7 38.4994C38.7 37.4174 38.7 36.4256 38.7894 35.4338H46.2079C46.2973 36.4256 46.2973 37.4174 46.2973 38.4994C46.2973 39.5814 46.2973 40.5732 46.2079 41.565H38.7894ZM29.2257 38.4994C29.2257 37.4174 29.4045 36.4256 29.5833 35.4338H36.3761C36.2867 36.4256 36.2867 37.4174 36.2867 38.4994C36.2867 39.4912 36.2867 40.483 36.3761 41.565H29.5833C29.4045 40.5732 29.2257 39.5814 29.2257 38.4994ZM42.4539 25.1551C43.6159 25.1551 45.1353 28.1305 45.8504 33.0896H38.9681C39.7725 28.1305 41.292 25.1551 42.4539 25.1551ZM38.6106 25.7863C37.6274 27.6797 36.9124 30.2043 36.5549 33.0896H30.3877C31.9071 29.5732 34.946 26.8682 38.6106 25.7863ZM30.3877 43.9092H36.5549C36.9124 46.7043 37.6274 49.3191 38.6106 51.2125C34.946 50.1305 31.9071 47.4256 30.3877 43.9092ZM46.2973 51.2125C47.2804 49.3191 47.9955 46.7945 48.353 43.9092H54.5202C53.0007 47.4256 49.9618 50.1305 46.2973 51.2125Z" fill="white"/>
<path d="M74.4532 27.9508C72.9338 27.9508 71.5931 28.3115 70.2524 28.8525L64.6215 19.0246C67.2135 17.1311 68.8223 14.0656 68.8223 10.5492C68.8223 4.68852 64.0852 0 58.3649 0C53.0021 0 48.6225 4.14754 47.9968 9.37705H36.8244C36.1987 4.14754 31.8191 0 26.4564 0C20.6467 0 15.9989 4.77869 15.9989 10.5492C15.9989 13.9754 17.6972 17.041 20.1998 19.0246L14.5689 28.8525C13.3176 28.3115 11.8875 27.9508 10.368 27.9508C4.73712 27.9508 0 32.6393 0 38.5C0 44.3607 4.73712 49.0492 10.4574 49.0492C11.9769 49.0492 13.3176 48.6885 14.6583 48.1475L20.2892 57.9754C17.6972 59.8689 16.0883 62.9344 16.0883 66.4508C16.0883 72.3115 20.8254 77 26.5457 77C31.9085 77 36.2881 72.8525 36.9138 67.6229H48.0862C48.7119 72.8525 53.0915 77 58.4543 77C64.2639 77 68.9117 72.2213 68.9117 66.4508C68.9117 63.0246 67.2135 59.959 64.7108 57.9754L70.3417 48.1475C71.5931 48.6885 73.0231 49.0492 74.5426 49.0492C80.3523 49.0492 85 44.2705 85 38.5C85 32.7295 80.1735 27.9508 74.4532 27.9508ZM58.4543 11.9918H58.3649C57.2923 11.9918 56.3985 11.0902 56.3985 9.91803C56.3985 8.7459 57.2923 7.84426 58.4543 7.84426C59.6162 7.84426 60.51 8.7459 60.51 9.91803C60.4206 11.0902 59.5268 11.9918 58.4543 11.9918ZM57.2029 14.4262H59.5268C60.6887 14.4262 61.5825 15.3279 61.7613 16.4098L61.9401 17.7623C60.8675 18.3033 59.6162 18.6639 58.3649 18.6639C57.0242 18.6639 55.8623 18.3033 54.7897 17.7623L54.9685 16.4098C55.1472 15.3279 56.041 14.4262 57.2029 14.4262ZM58.3649 2.43443C62.8339 2.43443 66.409 6.13115 66.409 10.5492C66.409 12.7131 65.5153 14.6967 64.1746 16.1393C63.9958 14.6066 63.102 13.3443 61.8507 12.623C62.387 11.9016 62.7445 10.9098 62.7445 9.91803C62.7445 7.48361 60.7781 5.40984 58.2755 5.40984C55.7729 5.40984 53.8065 7.39344 53.8065 9.91803C53.8065 10.9098 54.164 11.9016 54.7003 12.623C53.449 13.3443 52.6446 14.6066 52.3764 16.1393V16.2295C50.9464 14.7869 50.142 12.8033 50.142 10.6393C50.3207 6.04098 53.9853 2.43443 58.3649 2.43443ZM18.4122 10.5492C18.4122 6.04098 22.0768 2.43443 26.4564 2.43443C30.836 2.43443 34.5005 6.13115 34.5005 10.5492C34.5005 12.7131 33.6067 14.6967 32.266 16.1393C32.0873 14.6066 31.1935 13.3443 29.9422 12.623C30.4784 11.9016 30.836 10.9098 30.836 9.91803C30.836 7.48361 28.8696 5.40984 26.367 5.40984C23.8644 5.40984 21.898 7.39344 21.898 9.91803C21.898 10.9098 22.2555 11.9016 22.7918 12.623C21.5405 13.3443 20.7361 14.6066 20.4679 16.1393V16.2295C19.306 14.6967 18.4122 12.7131 18.4122 10.5492ZM22.8812 17.8525L23.0599 16.5C23.2387 15.3279 24.1325 14.5164 25.2944 14.5164H27.6183C28.7802 14.5164 29.674 15.418 29.8528 16.5L30.0315 17.8525C28.959 18.3934 27.7077 18.7541 26.4564 18.7541C25.205 18.7541 23.9537 18.3934 22.8812 17.8525ZM26.5457 11.9918H26.4564C25.3838 11.9918 24.49 11.0902 24.49 9.91803C24.49 8.7459 25.3838 7.84426 26.5457 7.84426C27.7077 7.84426 28.6015 8.7459 28.6015 9.91803C28.6015 11.0902 27.7077 11.9918 26.5457 11.9918ZM2.41325 38.5C2.41325 33.9918 6.07781 30.3852 10.4574 30.3852C14.837 30.3852 18.5016 34.082 18.5016 38.5C18.5016 40.6639 17.6078 42.6475 16.2671 44.0902C16.0883 42.5574 15.1945 41.2951 13.9432 40.5738C14.4795 39.8525 14.837 38.8607 14.837 37.8689C14.837 35.4344 12.8707 33.3607 10.368 33.3607C7.86541 33.3607 5.89905 35.3443 5.89905 37.8689C5.89905 38.8607 6.25657 39.8525 6.79285 40.5738C5.54154 41.2951 4.73712 42.5574 4.46898 44.0902V44.1803C3.30705 42.6475 2.41325 40.6639 2.41325 38.5ZM10.4574 39.9426C9.38486 39.9426 8.49106 39.041 8.49106 37.8689C8.49106 36.6967 9.38486 35.7951 10.5468 35.7951C11.7087 35.7951 12.6025 36.6967 12.6025 37.8689C12.6025 38.9508 11.7087 39.8525 10.6362 39.9426H10.4574ZM6.88223 45.8033L7.06099 44.4508C7.23975 43.2787 8.13354 42.4672 9.29548 42.4672H11.6193C12.7813 42.4672 13.6751 43.3689 13.8538 44.4508L14.0326 45.8033C12.96 46.3443 11.7087 46.7049 10.4574 46.7049C9.2061 46.6148 7.95478 46.3443 6.88223 45.8033ZM22.8812 73.6639L23.0599 72.3115C23.2387 71.1393 24.1325 70.3279 25.2944 70.3279H27.6183C28.7802 70.3279 29.674 71.2295 29.8528 72.3115L30.0315 73.6639C28.959 74.2049 27.7077 74.5656 26.4564 74.5656C25.205 74.5656 23.9537 74.2049 22.8812 73.6639ZM26.5457 67.8934H26.4564C25.3838 67.8934 24.49 66.9918 24.49 65.8197C24.49 64.6475 25.3838 63.7459 26.5457 63.7459C27.7077 63.7459 28.6015 64.6475 28.6015 65.8197C28.6015 66.9016 27.7077 67.8934 26.5457 67.8934ZM32.3554 72.041C32.1767 70.5082 31.2829 69.2459 30.0315 68.5246C30.5678 67.8033 30.9253 66.8115 30.9253 65.8197C30.9253 63.3852 28.959 61.3115 26.4564 61.3115C23.9537 61.3115 21.9874 63.2951 21.9874 65.8197C21.9874 66.8115 22.3449 67.8033 22.8812 68.5246C21.6299 69.2459 20.8254 70.5082 20.5573 72.041V72.1311C19.1272 70.6885 18.3228 68.7049 18.3228 66.541C18.3228 62.0328 21.9874 58.4262 26.367 58.4262C30.7466 58.4262 34.4111 62.123 34.4111 66.541C34.5899 68.6148 33.6961 70.5984 32.3554 72.041ZM54.7897 73.6639L54.9685 72.3115C55.1472 71.1393 56.041 70.3279 57.2029 70.3279H59.5268C60.6887 70.3279 61.5825 71.2295 61.7613 72.3115L61.9401 73.6639C60.8675 74.2049 59.6162 74.5656 58.3649 74.5656C57.1136 74.5656 55.8623 74.2049 54.7897 73.6639ZM58.4543 67.8934H58.3649C57.2923 67.8934 56.3985 66.9918 56.3985 65.8197C56.3985 64.6475 57.2923 63.7459 58.4543 63.7459C59.6162 63.7459 60.51 64.6475 60.51 65.8197C60.4206 66.9016 59.5268 67.8934 58.4543 67.8934ZM66.4984 66.4508C66.4984 68.6148 65.6046 70.5984 64.2639 72.041C64.0852 70.5082 63.1914 69.2459 61.9401 68.5246C62.4763 67.8033 62.8339 66.8115 62.8339 65.8197C62.8339 63.3852 60.8675 61.3115 58.3649 61.3115C55.8623 61.3115 53.8959 63.2951 53.8959 65.8197C53.8959 66.8115 54.2534 67.8033 54.7897 68.5246C53.5384 69.2459 52.734 70.5082 52.4658 72.041V72.1311C51.0358 70.6885 50.2313 68.7049 50.2313 66.541C50.2313 62.0328 53.8959 58.4262 58.2755 58.4262C62.6551 58.4262 66.4984 61.9426 66.4984 66.4508ZM62.5657 56.7131C61.3144 56.1721 59.8843 55.8115 58.3649 55.8115C53.0021 55.8115 48.6225 59.959 47.9968 65.1885H36.8244C36.1987 59.959 31.8191 55.8115 26.4564 55.8115C24.9369 55.8115 23.5068 56.1721 22.2555 56.7131L16.6246 46.8852C19.2166 44.9918 20.9148 41.9262 20.9148 38.4098C20.9148 34.8934 19.2166 31.918 16.6246 29.9344L22.2555 20.1066C23.5068 20.6475 24.9369 21.0082 26.4564 21.0082C31.8191 21.0082 36.1987 16.8607 36.8244 11.6311H47.9968C48.6225 16.8607 53.0021 21.0082 58.3649 21.0082C59.8843 21.0082 61.3144 20.6475 62.5657 20.1066L68.1966 29.9344C65.6046 32.0082 63.9064 35.0738 63.9064 38.5C63.9064 41.9262 65.6046 44.9918 68.1966 46.9754L62.5657 56.7131ZM70.7886 45.8033L70.9674 44.4508C71.1462 43.2787 72.04 42.4672 73.2019 42.4672H75.5258C76.6877 42.4672 77.5815 43.3689 77.7603 44.4508L77.939 45.8033C76.8665 46.3443 75.6151 46.7049 74.3638 46.7049C73.1125 46.6148 71.9506 46.3443 70.7886 45.8033ZM74.4532 39.9426H74.3638C73.2913 39.9426 72.3975 39.041 72.3975 37.8689C72.3975 36.6967 73.2913 35.7951 74.4532 35.7951C75.6151 35.7951 76.5089 36.6967 76.5089 37.8689C76.5089 39.041 75.6151 39.9426 74.4532 39.9426ZM80.2629 44.0902C80.0841 42.5574 79.1903 41.2951 77.939 40.5738C78.4753 39.8525 78.8328 38.8607 78.8328 37.8689C78.8328 35.4344 76.8665 33.3607 74.3638 33.3607C71.8612 33.3607 69.8948 35.3443 69.8948 37.8689C69.8948 38.8607 70.2524 39.8525 70.7886 40.5738C69.5373 41.2951 68.7329 42.5574 68.4648 44.0902V44.1803C67.0347 42.7377 66.2303 40.7541 66.2303 38.5902C66.2303 34.082 69.8948 30.4754 74.2745 30.4754C78.6541 30.4754 82.3186 34.1721 82.3186 38.5902C82.4974 40.6639 81.6036 42.6475 80.2629 44.0902Z" fill="white"/>
</g>
<defs>
<clipPath id="clip0_953_14664">
<rect width="85" height="77" fill="white"/>
</clipPath>
</defs>
</svg>
