<svg width="113" height="114" viewBox="0 0 113 114" fill="none" xmlns="http://www.w3.org/2000/svg">
<path opacity="0.6667" d="M81.0137 72.2539H23.9671C23.4407 72.2539 23.0156 72.6773 23.0156 73.2016C23.0156 73.7259 23.4407 74.1493 23.9671 74.1493H81.0137C81.54 74.1493 81.9651 73.7259 81.9651 73.2016C81.9651 72.6773 81.54 72.2539 81.0137 72.2539Z" fill="#7A63AB"/>
<path opacity="0.6667" d="M81.0161 84.7358H64.4163C63.89 84.7358 63.4648 85.1593 63.4648 85.6836C63.4648 86.2078 63.89 86.6313 64.4163 86.6313H81.0161C81.5424 86.6313 81.9675 86.2078 81.9675 85.6836C81.9675 85.1593 81.5424 84.7358 81.0161 84.7358Z" fill="#7A63AB"/>
<path opacity="0.6667" d="M81.0161 78.4849H64.4163C63.89 78.4849 63.4648 78.9083 63.4648 79.4326C63.4648 79.9568 63.89 80.3803 64.4163 80.3803H81.0161C81.5424 80.3803 81.9675 79.9568 81.9675 79.4326C81.9675 78.9083 81.5424 78.4849 81.0161 78.4849Z" fill="#7A63AB"/>
<path opacity="0.6667" d="M81.0161 90.9663H64.4163C63.89 90.9663 63.4648 91.3898 63.4648 91.914C63.4648 92.4383 63.89 92.8617 64.4163 92.8617H81.0161C81.5424 92.8617 81.9675 92.4383 81.9675 91.914C81.9675 91.3898 81.5424 90.9663 81.0161 90.9663Z" fill="#7A63AB"/>
<path opacity="0.6667" d="M23.9671 55.4374H39.8178C40.3442 55.4374 40.7693 55.014 40.7693 54.4897C40.7693 53.9654 40.3442 53.542 39.8178 53.542H23.9671C23.4407 53.542 23.0156 53.9654 23.0156 54.4897C23.0156 55.014 23.4407 55.4374 23.9671 55.4374Z" fill="#7A63AB"/>
<path opacity="0.6667" d="M23.9671 61.6679H39.8178C40.3442 61.6679 40.7693 61.2444 40.7693 60.7202C40.7693 60.1959 40.3442 59.7725 39.8178 59.7725H23.9671C23.4407 59.7725 23.0156 60.1959 23.0156 60.7202C23.0156 61.2444 23.4407 61.6679 23.9671 61.6679Z" fill="#7A63AB"/>
<path opacity="0.6667" d="M23.9671 67.9189H81.0137C81.54 67.9189 81.9651 67.4954 81.9651 66.9711C81.9651 66.4469 81.54 66.0234 81.0137 66.0234H23.9671C23.4407 66.0234 23.0156 66.4469 23.0156 66.9711C23.0156 67.4954 23.4407 67.9189 23.9671 67.9189Z" fill="#7A63AB"/>
<path opacity="0.6667" d="M110.753 62.1722L91.5013 45.5166C99.5582 30.4136 93.809 11.6609 78.6465 3.63558C63.8282 -4.22844 45.4065 1.07473 37.0661 15.5929H16.4783C15.952 15.5929 15.5269 16.0164 15.5269 16.5406V78.606H8.23916C7.71283 78.606 7.28771 79.0294 7.28771 79.5537V80.5014H5.16213C2.30778 80.4812 0 82.7799 0 85.6231C0 88.4662 2.30778 90.7649 5.16213 90.7649H7.28771V91.7127C7.28771 92.2369 7.71283 92.6604 8.23916 92.6604H11.2555V95.9471C11.2555 96.4714 11.6806 96.8949 12.2069 96.8949H15.5269V102.097C15.5269 107.884 20.0614 112.683 25.8714 113.006C25.9321 113.006 26.0131 113.026 26.0738 113.026H91.0761C96.3597 113.026 100.631 108.772 100.631 103.509V99.5767C100.631 99.0524 100.206 98.629 99.6797 98.629L89.4566 98.6693V60.3372L102.595 71.6896C103.749 72.6777 105.226 73.2221 106.745 73.2221C110.186 73.2221 112.98 70.4798 113 67.0519C113 66.8503 113 66.6486 112.98 66.4671C112.838 64.7935 112.028 63.261 110.753 62.1722ZM55.4473 3.19197C62.8565 0.91342 70.873 1.65949 77.7153 5.30921C91.9669 12.8304 97.3922 30.4539 89.8413 44.6495C82.2904 58.8451 64.5975 64.2491 50.3459 56.7278C36.0944 49.2066 30.6691 31.5831 38.22 17.3875C41.8436 10.5721 48.0584 5.47052 55.4676 3.19197H55.4473ZM13.1786 90.7649V80.4812H16.3973C16.3973 80.4812 16.4581 80.4812 16.4986 80.5014C16.5391 80.5014 16.5593 80.5014 16.5998 80.4812H43.9489V90.7649H13.1786ZM5.18237 88.8897C3.38069 88.8897 1.92315 87.4379 1.9029 85.6433C1.88266 83.8486 3.36044 82.3968 5.16213 82.3767H7.28771V88.8897H5.16213H5.18237ZM9.21086 90.7649V80.4812H11.296V90.7649H9.21086ZM13.1786 94.9994V92.6604H15.5471V94.9994H13.1786ZM98.7485 103.509C98.7485 107.723 95.3273 111.131 91.0964 111.131H32.6732C35.2239 109.417 36.9244 106.715 37.39 103.69C37.5317 102.722 37.552 101.754 37.4305 100.807L98.7485 100.524V103.509ZM87.574 98.6895L36.2968 98.9314C35.7705 98.9314 35.3454 99.3549 35.3454 99.8792C35.3454 99.9396 35.3454 100.02 35.3656 100.081C35.6086 101.19 35.6491 102.319 35.4871 103.428C34.8596 107.461 31.6003 110.586 27.5314 111.07C27.2277 111.111 26.924 111.131 26.6204 111.131H26.337C24.1507 111.111 22.0453 110.284 20.4258 108.832C18.5027 107.118 17.4095 104.658 17.4095 102.097V96.8949H29.5355C30.0618 96.8949 30.4869 96.4714 30.4869 95.9471C30.4869 95.4229 30.0618 94.9994 29.5355 94.9994H17.4095V92.6604H44.8599C45.3862 92.6604 45.8114 92.2369 45.8114 91.7127V91.1884C45.8114 91.1884 45.9126 91.1884 45.9733 91.1884C50.2447 91.3699 54.3744 89.6559 57.2288 86.4901H59.0507C59.577 86.4901 60.0021 86.0667 60.0021 85.5424C60.0021 85.0182 59.577 84.5947 59.0507 84.5947H57.2288C54.3339 81.4088 50.1435 79.6948 45.8316 79.9166V79.5537C45.8316 79.0294 45.4065 78.606 44.8801 78.606H17.4298V17.4884H36.0337C33.402 22.8722 32.3898 28.9013 33.1388 34.8497H23.9685C23.4421 34.8497 23.017 35.2732 23.017 35.7974C23.017 36.3217 23.4421 36.7451 23.9685 36.7451H33.4425C33.6652 37.8743 33.9283 39.0035 34.2725 40.1126C34.3737 40.4553 34.5154 40.7578 34.6369 41.1006H23.9685C23.4421 41.1006 23.017 41.5241 23.017 42.0483C23.017 42.5726 23.4421 42.996 23.9685 42.996H35.3049C35.9527 44.5083 36.7017 45.9602 37.5722 47.3515H23.9482C23.4219 47.3515 22.9968 47.7749 22.9968 48.2992C22.9968 48.8235 23.4219 49.2469 23.9482 49.2469H38.8273C48.8884 63.0795 68.302 66.1848 82.2094 56.1632C82.6345 55.8608 83.0394 55.5583 83.4443 55.2357L87.5335 58.7644V98.7298L87.574 98.6895ZM45.8518 81.8121C49.4755 81.6104 53.0181 82.9816 55.5688 85.5626C53.0181 88.1436 49.4755 89.5148 45.8518 89.3131V81.8121ZM110.105 69.8345C108.506 71.6695 105.712 71.8711 103.87 70.2782L89.3352 57.736C89.234 57.5546 89.072 57.4336 88.8898 57.3529L84.9626 53.9653C87.1489 51.9893 89.0315 49.7107 90.57 47.2103L109.559 63.624C110.47 64.3902 111.036 65.4791 111.138 66.6486C111.239 67.798 110.874 68.9473 110.125 69.8345H110.105Z" fill="#7A63AB"/>
<path opacity="0.6667" d="M106.24 63.8455C104.641 63.9665 103.426 65.3376 103.547 66.9306C103.669 68.5236 105.045 69.7334 106.645 69.6124C108.244 69.4915 109.459 68.1203 109.337 66.5273C109.276 65.7611 108.932 65.0553 108.345 64.5512C107.758 64.0471 107.009 63.785 106.24 63.8455ZM107.212 67.3944C106.847 67.8178 106.199 67.8582 105.774 67.4952C105.349 67.1323 105.309 66.487 105.673 66.0635C105.855 65.8619 106.098 65.7409 106.361 65.7208C106.382 65.7208 106.402 65.7208 106.442 65.7208C107.009 65.7208 107.454 66.1845 107.454 66.729C107.454 66.9709 107.373 67.2129 107.212 67.3944Z" fill="#7A63AB"/>
<path opacity="0.6667" d="M52.1664 34.3656C52.1664 34.3656 52.1867 34.4463 52.2069 34.4866C52.4093 35.031 52.6118 35.5755 52.8547 36.0997C56.0532 43.0362 62.7943 47.795 71.8837 49.4686C72.1874 49.5291 72.491 49.4283 72.6935 49.1863C72.6935 49.1863 72.7339 49.146 72.7542 49.1258C72.7947 49.0855 72.8352 49.0653 72.8757 49.0048C77.5317 41.0601 78.3414 32.8533 75.1632 25.9168C74.9203 25.3926 74.6571 24.8683 74.3534 24.3642C74.3534 24.3239 74.313 24.2835 74.2927 24.2432C72.7542 21.5815 70.6691 19.2828 68.1791 17.4882C68.0779 17.3471 67.9362 17.2462 67.7945 17.1858C67.7945 17.1858 67.7945 17.1858 67.7743 17.1858C64.2721 14.8265 60.3044 13.2336 56.1342 12.5278C56.0532 12.5278 55.9722 12.5278 55.8912 12.5278C55.6686 12.5278 55.4459 12.6488 55.2839 12.8101C55.2637 12.8303 55.2434 12.8706 55.2232 12.8908C55.203 12.9311 55.1625 12.9513 55.1422 12.9916C52.9559 16.601 51.5591 20.6137 51.0733 24.8078C51.0125 24.9691 51.0125 25.1304 51.053 25.2917C50.7898 28.3567 51.1745 31.4217 52.1867 34.3253L52.1664 34.3656ZM55.8912 15.5928L61.438 27.6711L53.0166 24.5457C53.4418 21.4202 54.4135 18.3754 55.8912 15.5726V15.5928ZM57.6119 14.8064C60.7092 15.5323 63.6446 16.7825 66.2965 18.4964L63.1587 26.8847L57.6119 14.7862V14.8064ZM62.5514 30.111L66.1345 37.9145L53.8264 33.3574C53.0976 31.1595 52.7737 28.8406 52.8749 26.5218L62.5716 30.111H62.5514ZM54.7778 35.7166L67.2479 40.3342L70.4059 47.2102C63.0575 45.4156 57.5512 41.3828 54.7778 35.7166ZM72.1266 46.444L68.9686 39.568L73.6044 27.1469C76.1146 32.9541 75.5883 39.7495 72.1266 46.4641V46.444ZM72.4303 24.8481L67.835 37.1281L64.2519 29.3246L67.8552 19.6659C69.6772 21.1178 71.2157 22.872 72.4101 24.8481H72.4303Z" fill="#7A63AB"/>
<path opacity="0.6667" d="M38.4421 38.8216C42.7743 52.8962 57.7343 60.8006 71.8644 56.4653C85.9944 52.1502 93.9299 37.2488 89.5775 23.1742C85.2454 9.09966 70.2854 1.1953 56.1553 5.5306C49.3737 7.60751 43.7055 12.2856 40.3653 18.5163C37.0453 24.7672 36.357 32.0666 38.4219 38.8216H38.4421ZM42.0657 19.4035C48.5032 7.32521 63.5442 2.72778 75.6702 9.11982C87.7961 15.532 92.4117 30.514 85.9944 42.5923C79.5569 54.6707 64.5159 59.2681 52.39 52.8761C46.5598 49.7909 42.2074 44.5483 40.264 38.257C38.3207 31.986 38.9685 25.1907 42.0657 19.3834V19.4035Z" fill="#7A63AB"/>
</svg>
