<svg width="109" height="116" viewBox="0 0 109 116" fill="none" xmlns="http://www.w3.org/2000/svg">
<path opacity="0.6667" d="M16.4153 90.8982C15.8853 90.1894 16.0325 89.2001 16.7392 88.6833C17.4311 88.1517 18.4175 88.2994 18.9475 88.9934L21.1411 91.9465L29.6506 80.4883C30.1806 79.7943 31.1522 79.6466 31.8589 80.1782C32.5508 80.695 32.6981 81.6843 32.1828 82.3931L22.4219 95.5199C21.8036 96.3763 20.5228 96.4058 19.875 95.5494L16.4153 90.8982ZM28.7378 90.1303C28.4581 89.3035 28.8997 88.4027 29.7241 88.137C30.5486 87.8712 31.4319 88.3141 31.7117 89.141C34.1261 96.3615 28.7083 103.626 21.2442 103.626C15.1492 103.626 10.2025 98.665 10.2025 92.5519C10.2025 85.6711 16.3859 80.4587 23.1728 81.64C23.7911 81.7434 24.3947 81.9058 24.9983 82.1273C25.8081 82.4226 26.2203 83.3381 25.9258 84.1502C25.6314 84.9623 24.7186 85.3758 23.9089 85.0804C21.1264 84.0321 17.7845 84.8294 15.6792 86.9409C12.6022 90.027 12.6022 95.0473 15.6792 98.1334C18.7856 101.249 23.7911 101.205 26.8828 98.1334C29.0322 95.9924 29.68 92.9063 28.7525 90.1156L28.7378 90.1303ZM36.9233 69.6797C36.0547 69.6797 35.348 68.971 35.348 68.0998C35.348 67.2286 36.0547 66.5199 36.9233 66.5199H51.41C52.2786 66.5199 52.9853 67.2286 52.9853 68.0998C52.9853 68.971 52.2786 69.6797 51.41 69.6797H36.9233ZM36.9233 60.2444C36.0547 60.2444 35.348 59.5356 35.348 58.6645C35.348 57.7933 36.0547 57.0845 36.9233 57.0845H58.6386C59.5072 57.0845 60.2139 57.7933 60.2139 58.6645C60.2139 59.5356 59.5072 60.2444 58.6386 60.2444H36.9233ZM16.4153 62.5331C15.8853 61.8243 16.0325 60.835 16.7392 60.3182C17.4311 59.7867 18.4175 59.9343 18.9475 60.6283L21.1411 63.5815L29.6506 52.1232C30.1806 51.4292 31.1522 51.2816 31.8589 51.8131C32.5508 52.3299 32.6981 53.3192 32.1828 54.028L22.4219 67.1548C21.8036 68.0112 20.5228 68.0407 19.875 67.1843L16.4153 62.5331ZM28.7378 61.7653C28.4581 60.9384 28.8997 60.0524 29.7241 59.7719C30.5486 59.4913 31.4319 59.9343 31.7117 60.7612C34.1261 67.9817 28.7083 75.2464 21.2442 75.2464C15.1492 75.2464 10.2025 70.2851 10.2025 64.1721C10.2025 57.2912 16.3859 52.0789 23.1728 53.2602C23.7911 53.3635 24.3947 53.526 24.9983 53.7474C25.8081 54.0428 26.2203 54.9582 25.9258 55.7704C25.6314 56.5825 24.7186 56.9959 23.9089 56.7006C21.1264 55.6522 17.7845 56.4496 15.6792 58.5611C12.6022 61.6471 12.6022 66.6675 15.6792 69.7536C18.7856 72.8691 23.7911 72.8248 26.8828 69.7536C29.0322 67.6125 29.68 64.5265 28.7525 61.7357L28.7378 61.7653ZM16.4153 33.8136C15.8853 33.1197 16.0325 32.1303 16.7392 31.5988C17.4311 31.082 18.4175 31.2296 18.9475 31.9236L21.1411 34.8768L29.6506 23.4333C30.1806 22.7393 31.1522 22.5916 31.8589 23.1084C32.5656 23.6253 32.6981 24.6146 32.1828 25.3233L22.4219 38.4501C21.8036 39.3065 20.5228 39.336 19.875 38.4796L16.4153 33.8284V33.8136ZM28.7378 33.0311C28.4581 32.2042 28.8997 31.3182 29.7241 31.0377C30.5486 30.7571 31.4319 31.2149 31.7117 32.027C34.1261 39.2475 28.7083 46.527 21.2442 46.527C15.1492 46.527 10.2025 41.5657 10.2025 35.4526C10.2025 28.5718 16.3859 23.3595 23.1728 24.5407C23.7911 24.6589 24.3947 24.8213 24.9983 25.0428C25.8081 25.3381 26.2203 26.2536 25.9258 27.0657C25.6314 27.8778 24.7186 28.2912 23.9089 27.9812C21.1264 26.9328 17.7845 27.7301 15.6792 29.8417C12.6022 32.9277 12.6022 37.9481 15.6792 41.0341C18.7856 44.1497 23.7911 44.1054 26.8828 41.0341C29.0322 38.8931 29.68 35.807 28.7525 33.0163L28.7378 33.0311ZM36.9233 98.0448C36.0547 98.0448 35.348 97.336 35.348 96.4649C35.348 95.5937 36.0547 94.8849 36.9233 94.8849H48.9955C49.8641 94.8849 50.5708 95.5937 50.5708 96.4649C50.5708 97.336 49.8641 98.0448 48.9955 98.0448H36.9233ZM36.9233 88.6095C36.0547 88.6095 35.348 87.9007 35.348 87.0295C35.348 86.1583 36.0547 85.4496 36.9233 85.4496H45.5064C46.375 85.4496 47.0816 86.1583 47.0816 87.0295C47.0816 87.9007 46.375 88.6095 45.5064 88.6095H36.9233ZM36.9233 31.5249C36.0547 31.5249 35.348 30.8162 35.348 29.945C35.348 29.0738 36.0547 28.3651 36.9233 28.3651H67.4572C68.3258 28.3651 69.0325 29.0738 69.0325 29.945C69.0325 30.8162 68.3258 31.5249 67.4572 31.5249H36.9233ZM36.9233 40.9603C36.0547 40.9603 35.348 40.2515 35.348 39.3803C35.348 38.5092 36.0547 37.8004 36.9233 37.8004H51.1008C51.9694 37.8004 52.6761 38.5092 52.6761 39.3803C52.6761 40.2515 51.9694 40.9603 51.1008 40.9603H36.9233ZM5.38833 16.582H12.6464C14.7958 16.582 16.5478 14.8248 16.5478 12.669V5.38951L5.40307 16.582H5.38833ZM19.6836 3.15988V12.669C19.6836 16.5672 16.5183 19.7271 12.6317 19.7271H3.15057V108.927C3.15057 111.083 4.90251 112.84 7.05195 112.84H75.8636C78.013 112.84 79.765 111.083 79.765 108.927V71.6288L70.328 88.0188C70.1955 88.2403 70.0189 88.4323 69.8127 88.5504L54.6342 99.0784C53.53 99.8462 52.043 98.9455 52.1755 97.6166L54.163 79.3809C54.1925 79.1151 54.2808 78.8788 54.4133 78.6573L79.7502 34.6553V7.07281C79.7502 4.91701 77.9983 3.15988 75.8489 3.15988H19.6689H19.6836ZM82.7536 35.7332C82.7094 35.8218 82.6652 35.9104 82.6064 35.9842L57.24 80.0453L55.6647 94.5306L67.7663 86.1288L79.8975 65.0433C79.8975 65.0433 79.9711 64.9104 80.0152 64.8513L99.6105 30.8014L89.0989 24.7179L82.7536 35.7332ZM82.9008 66.1507V108.927C82.9008 112.825 79.7355 116 75.8489 116H7.03722C3.15055 116 0 112.825 0 108.927V18.1619C0 17.6894 0.161941 17.4236 0.456385 17.0397L16.9747 0.472505C17.2692 0.17719 17.652 0 18.1083 0H75.8489C79.7355 0 82.9008 3.17464 82.9008 7.07281V29.2067L92.8236 11.9455C93.2505 11.1925 94.2074 10.9267 94.973 11.3697L108.208 19.0331C108.974 19.4613 109.224 20.4506 108.782 21.1889L82.9008 66.1507ZM104.896 32.2928C105.323 31.5397 106.28 31.2887 107.045 31.7169C107.796 32.1451 108.061 33.1197 107.619 33.8727L99.2572 48.4022C98.8302 49.1553 97.8586 49.4063 97.1077 48.9781C96.3569 48.5499 96.0919 47.5754 96.5336 46.8223L104.91 32.278L104.896 32.2928ZM90.6741 22.001L101.186 28.0845L105.279 20.9674L94.7669 14.8839L90.6741 22.001Z" fill="#7A63AB"/>
</svg>
