<svg width="91" height="92" viewBox="0 0 91 92" fill="none" xmlns="http://www.w3.org/2000/svg">
<path opacity="0.6667" d="M46.6023 12.2515V10.5363C46.6023 9.49957 45.7553 8.65137 44.7201 8.65137H2.74795C1.24223 8.65137 0 9.89539 0 11.4033V88.2691C0 89.777 1.24223 91.021 2.74795 91.021H79.5025C81.0082 91.021 82.2504 89.777 82.2504 88.2691V46.2361C82.2504 45.1994 81.4034 44.3512 80.3682 44.3512H78.6555C77.6203 44.3512 76.7733 45.1994 76.7733 46.2361V83.6323C76.7733 84.669 75.9264 85.5172 74.8912 85.5172H7.35925C6.32406 85.5172 5.47709 84.669 5.47709 83.6323V16.0213C5.47709 14.9846 6.32406 14.1364 7.35925 14.1364H44.7013C45.7365 14.1364 46.5835 13.2882 46.5835 12.2515H46.6023Z" fill="#7A63AB"/>
<path opacity="0.6667" d="M89.1194 0H64.9337C63.8985 0 63.0515 0.8482 63.0515 1.88489V3.60014C63.0515 4.63683 63.8985 5.48503 64.9337 5.48503H77.0171C78.6923 5.48503 79.5392 7.52071 78.3535 8.70819L42.8748 44.2384C42.1407 44.9735 42.1407 46.1609 42.8748 46.896L44.0605 48.0835C44.7946 48.8186 45.9803 48.8186 46.7144 48.0835L82.306 12.5345C83.4918 11.347 85.5245 12.1952 85.5245 13.8728V25.9738C85.5245 27.0105 86.3715 27.8587 87.4067 27.8587H89.1194C90.1546 27.8587 91.0016 27.0105 91.0016 25.9738V1.88489C91.0016 0.8482 90.1546 0 89.1194 0Z" fill="#7A63AB"/>
</svg>
