<svg width="106" height="118" viewBox="0 0 106 118" fill="none" xmlns="http://www.w3.org/2000/svg">
<g opacity="0.6667">
<path d="M57.9958 84.288C58.3235 80.0281 59.6342 76.0959 61.4365 72.6552C63.0749 73.8021 64.8772 74.4575 66.6794 74.4575C69.1371 74.4575 71.5947 73.3106 73.8885 71.1806C78.6399 66.7569 79.1314 55.4518 79.1314 54.3049C79.1314 53.8134 78.9676 53.4857 78.6399 53.158C78.3122 52.8303 77.9845 52.6665 77.493 52.6665H77.0015C74.2162 52.6665 64.5495 52.9942 60.2896 56.9264C57.9958 59.2202 56.6851 61.6778 56.6851 64.2993C56.6851 66.4292 57.5043 68.3953 58.9789 70.1976C57.9958 72.1637 57.0127 74.2936 56.1935 76.4236C54.719 72.1637 52.7529 68.2315 50.4591 64.6269C52.4252 62.0055 53.2444 59.2201 53.0805 56.4348C52.9167 52.9941 50.9506 49.8812 47.6738 47.0958C43.4139 43.6552 35.7133 42.8359 29.815 42.8359C26.702 42.8359 24.572 42.9998 24.4082 42.9998C23.9166 42.9998 23.589 43.3275 23.2613 43.6551C22.9336 43.9828 22.9336 44.4744 22.9336 44.802C22.9336 45.4574 24.7359 61.1863 31.4534 66.7569C34.2387 69.0507 37.1879 70.1976 40.137 70.1976C42.9223 70.1976 45.7076 69.0507 48.0014 66.9207C50.9506 71.6722 53.4082 77.0789 54.3913 83.1411C54.3913 83.2503 54.4459 83.3596 54.5551 83.4688V83.6326C54.5551 84.6157 55.2105 85.271 56.0297 85.4349H56.1935C57.1766 85.7626 57.832 85.1072 57.9958 84.288ZM59.9619 64.2993C59.9619 62.497 60.7811 60.8586 62.5834 59.2201C65.041 56.9264 70.9393 55.9433 75.6908 55.7795C75.3631 59.5478 74.2162 66.1015 71.5947 68.723C69.9563 70.1976 68.3179 71.0168 66.6794 71.0168C65.2049 71.0168 64.058 70.3614 63.0749 69.706C65.6964 65.61 68.4817 62.6608 70.6117 61.5139C71.4309 61.0224 71.5947 60.0394 71.267 59.2201C70.7755 58.4009 69.7924 58.2371 68.9732 58.5648C66.5156 59.8755 63.5664 62.9885 60.7811 67.0846C60.2896 66.2654 59.9619 65.2823 59.9619 64.2993ZM40.4647 67.2484C38.3347 67.2484 36.041 66.2654 33.7472 64.4631C29.6511 61.0224 27.3573 51.5196 26.702 46.4405C27.5212 46.4405 28.6681 46.2766 29.9788 46.2766C37.3517 46.2766 42.9223 47.4235 45.7076 49.7173C48.3291 51.8473 49.6399 54.141 49.9675 56.5987C50.1314 58.2371 49.6399 60.0394 48.6568 61.6778C44.5607 56.271 39.9732 52.1749 36.5325 50.5365C35.7133 50.2088 34.7302 50.5365 34.4025 51.3557C34.0749 52.1749 34.4025 53.158 35.2218 53.4857C38.1709 54.9603 42.7585 58.8925 46.6907 64.2993C45.0523 65.9377 42.9223 67.2484 40.4647 67.2484Z" fill="#7A63AB"/>
<path d="M105.023 58.7287C105.187 38.4123 93.5539 19.5704 75.0397 10.8868C74.2205 10.5591 73.2375 10.8868 72.9098 11.706C72.5821 12.5252 72.9098 13.5083 73.729 13.836C90.9324 22.0281 102.074 39.723 101.746 58.7287C101.582 81.9943 85.0341 101.819 62.5877 106.407L66.3561 100.345C66.8476 99.5254 66.5199 98.5424 65.8646 98.0508C65.0454 97.5593 64.0623 97.887 63.5708 98.5424L57.1809 108.864C57.0171 109.192 56.8532 109.684 57.0171 110.175C57.1809 110.667 57.3448 110.994 57.8363 111.158L68.1584 117.384C68.486 117.548 68.6499 117.548 68.9776 117.548C69.4691 117.548 70.1245 117.22 70.4521 116.729C70.9437 115.91 70.616 114.927 69.9606 114.435L61.9323 109.847C86.6725 105.26 104.695 83.9604 105.023 58.7287Z" fill="#7A63AB"/>
<path d="M41.1256 106.079C18.6792 100.672 3.1142 80.847 3.44189 57.7453C3.60573 35.135 18.6792 16.1293 40.3064 10.5587L36.2103 17.4401C35.7188 18.2593 36.0465 19.2423 36.7018 19.7339C37.0295 19.8977 37.1934 19.8977 37.521 19.8977C38.0126 19.8977 38.6679 19.57 38.9956 19.0785L45.2216 8.75645C45.3855 8.42877 45.5493 7.93724 45.3855 7.44572C45.2216 6.95419 45.0578 6.6265 44.5663 6.46266L34.2442 0.236661C33.425 -0.254866 32.4419 0.072819 31.9504 0.728188C31.4589 1.38356 31.7866 2.53045 32.4419 3.02198L39.4872 7.28187C16.3854 13.1802 0.165048 33.4966 0.00120582 57.5814C-0.162636 82.3216 16.3854 103.457 40.3064 109.192H40.634C41.4533 109.192 42.1086 108.7 42.2725 107.881C42.6002 107.062 42.1086 106.243 41.1256 106.079Z" fill="#7A63AB"/>
</g>
</svg>
