<svg width="83" height="65" viewBox="0 0 83 65" fill="none" xmlns="http://www.w3.org/2000/svg">
<path d="M78.5639 29.8619C77.4375 28.4317 75.4885 27.955 73.8106 28.7168L71.8243 29.6142C70.8568 30.0535 70.0809 30.8153 69.6416 31.7688C69.2022 32.7223 69.1275 33.7926 69.4359 34.8021L69.9781 36.5875C70.165 37.1904 69.9781 37.8401 69.5201 38.2841L67.6178 40.0602C66.5942 41.023 65.996 42.3691 65.996 43.7619V45.4678C65.996 45.9352 65.8371 46.3839 65.5379 46.7484L63.7011 49.0386C63.0655 49.8332 62.6682 50.7866 62.556 51.7868C62.4813 52.5113 61.9765 53.1236 61.2801 53.3619L57.8869 54.5257C57.1484 54.7828 56.3305 54.5444 55.8538 53.9321L53.4327 50.838C52.727 49.9313 52.3344 48.8049 52.3344 47.6598V40.4621C52.3344 39.6302 51.9511 38.8497 51.3014 38.3168C50.6378 37.784 49.7825 37.5831 48.9552 37.7607L44.3234 38.7141C43.4401 38.8964 42.5146 38.5505 41.9818 37.8261L39.0934 33.9234C38.7288 33.4374 38.5419 32.8625 38.5419 32.2549V30.3199C38.5419 29.1935 39.2102 28.1746 40.2665 27.7213L47.4315 24.5898C49.2964 23.7765 51.4276 23.9495 53.1242 25.0665C54.2506 25.8097 55.6107 26.1555 56.9661 26.0667L58.4945 25.9546C59.0647 25.9172 59.6209 26.0667 60.0883 26.3845L60.4995 26.6696C61.2006 27.1464 62.0746 27.3193 62.9019 27.1464C63.7292 26.9734 64.4583 26.4593 64.8976 25.7442C65.7623 24.3234 65.2902 22.4632 63.846 21.6032L54.1899 15.8684C53.1757 15.2655 51.9511 15.1159 50.8154 15.4478L46.3986 16.7378H46.3706C46.0714 16.5181 45.8845 16.1862 45.8564 15.8217C45.8284 15.4571 45.9406 15.1066 46.1929 14.8308L48.7355 12.0546C51.1472 9.42787 54.4469 7.75931 58.0271 7.36671L65.0378 6.58618C67.3748 7.89486 69.5201 9.51668 71.4503 11.4143C74.2453 14.1625 76.4373 17.3594 77.975 20.9208C79.5127 24.4916 80.3166 28.2868 80.3633 32.1941L78.5359 29.8665H78.5639V29.8619ZM28.4464 53.7031C25.6514 50.9549 23.4594 47.758 21.9217 44.1965C21.6133 43.4721 21.3328 42.7383 21.0851 42.0092L28.6053 46.9915C30.1336 48.0104 31.1105 49.693 31.2133 51.5064L31.4844 56.3345C30.4234 55.5306 29.4045 54.6566 28.4371 53.7171L28.4464 53.7078V53.7031ZM14.065 24.1364C12.9293 25.3937 10.2979 26.4827 8.21336 26.1228C6.93741 25.9031 6.03068 25.1787 5.53993 23.9635C4.87625 22.351 4.63788 21.0704 4.41354 19.9347C4.16115 18.6166 3.92746 17.4155 3.0628 16.4059C3.77322 16.2423 4.64723 16.0694 5.60537 15.9385C8.54988 15.5646 10.8868 15.845 12.345 16.7518C14.3314 17.9997 14.925 19.528 15.0746 20.589C15.2522 21.879 14.8689 23.2344 14.0603 24.1271L14.0697 24.1364H14.065ZM79.6716 20.2151C78.0498 16.4433 75.7222 13.0548 72.7637 10.1383C69.8098 7.2265 66.3512 4.94567 62.514 3.35189C58.5365 1.70203 54.3114 0.860734 49.9601 0.860734C48.5626 0.860734 47.1558 0.954214 45.777 1.12715C45.2816 1.19258 44.931 1.64127 44.9918 2.12735C45.0572 2.61343 45.5152 2.95929 46.006 2.89853C47.3006 2.73494 48.6327 2.65081 49.9554 2.65081C54.0637 2.65081 58.0458 3.4407 61.7989 5.00643C61.8924 5.04382 61.9858 5.09056 62.0793 5.12328L57.8401 5.6C53.8253 6.04869 50.1143 7.91823 47.4035 10.8768L44.8609 13.653C44.272 14.2933 43.9869 15.144 44.071 16.0086C44.1552 16.8686 44.6038 17.6585 45.2909 18.1773C45.7583 18.5232 46.3799 18.6353 46.9408 18.4717L51.3575 17.1818C52.0025 16.9901 52.6989 17.0789 53.2691 17.4201L62.9253 23.1549C63.5142 23.5008 63.7105 24.2626 63.3553 24.8469C63.1777 25.1507 62.8785 25.3516 62.5373 25.4264C62.1915 25.5012 61.8363 25.4264 61.5512 25.2348L61.1399 24.9497C60.3406 24.3982 59.3498 24.1271 58.373 24.1972L56.8446 24.3094C55.8958 24.3748 54.933 24.1271 54.1431 23.613C51.9231 22.1547 49.1375 21.9257 46.6977 22.9913L39.5327 26.1228C37.8268 26.8659 36.7378 28.5298 36.7378 30.3526V32.2876C36.7378 33.2691 37.0463 34.2085 37.6398 35.0078L40.5283 38.9104C41.477 40.2004 43.1176 40.8174 44.7113 40.4949L49.3431 39.5414C49.6422 39.476 49.9414 39.5507 50.1751 39.7424C50.4087 39.9246 50.5396 40.2004 50.5396 40.5042V47.7019C50.5396 49.2302 51.0631 50.7539 52.0119 51.9598L54.4329 55.0538C55.1293 55.9512 56.2043 56.4466 57.3027 56.4466C57.7046 56.4466 58.1019 56.3812 58.4945 56.2457L61.8877 55.0819C63.2384 54.6145 64.2199 53.4133 64.3648 52.0112C64.4396 51.3428 64.7013 50.7118 65.1313 50.179L66.9681 47.8889C67.5103 47.2111 67.8141 46.3605 67.8141 45.4959V43.7946C67.8141 42.8879 68.1974 42.0092 68.8657 41.3876L70.768 39.6115C71.7355 38.7048 72.1 37.3681 71.7168 36.1108L71.1746 34.3254C70.81 33.1149 71.4083 31.8062 72.5814 31.2734L74.5678 30.376C75.4605 29.9741 76.5168 30.2218 77.1197 30.9883L80.2886 35.0171C80.0268 38.1953 79.265 41.28 77.9984 44.2199C76.47 47.7814 74.2687 50.9783 71.4737 53.7265C68.6788 56.4747 65.4258 58.6247 61.7989 60.139C58.0505 61.6954 54.0637 62.4946 49.9554 62.4946C45.8471 62.4946 41.865 61.7094 38.1119 60.139C36.4527 59.4519 34.8776 58.6293 33.3773 57.6665L33.0221 51.4269C32.8912 49.0526 31.6153 46.8559 29.6102 45.5286L20.3092 39.3731C19.7858 37.1671 19.5287 34.8956 19.5287 32.5867C19.5287 27.3006 21.0571 21.22 23.422 17.0976C25.5393 13.4053 28.2594 10.4842 31.5124 8.39496C31.9331 8.12855 32.0546 7.57236 31.7742 7.15639C31.5031 6.74509 30.9376 6.62357 30.5169 6.89933C27.1237 9.06799 24.282 12.0826 22.0479 15.8637C20.4822 13.2698 19.9307 10.9656 20.3981 8.98386C20.8654 7.00683 22.3657 5.31958 24.8335 3.95482C26.3899 3.10418 27.6098 2.7069 29.6896 2.39843C31.2367 2.16941 32.8305 2.05256 34.4336 2.05256H38.841C37.9763 3.70243 36.8359 6.72173 37.0416 11.031C37.0416 11.2413 37.0135 15.0598 34.3868 17.322C32.6248 18.841 30.0448 19.3644 26.7264 18.8784C26.231 18.8036 25.7683 19.1448 25.6935 19.6309C25.6187 20.1169 25.9646 20.575 26.46 20.6497C27.3434 20.7759 28.194 20.8414 28.9932 20.8414C31.6947 20.8414 33.9148 20.1076 35.602 18.654C38.9205 15.7796 38.8644 11.1806 38.8644 10.9889V10.9609C38.7148 7.83877 39.3598 5.49251 39.916 4.07166C40.5236 2.53397 41.1732 1.72539 41.1826 1.71605C41.4069 1.44964 41.4537 1.08508 41.3041 0.77193C41.1546 0.458783 40.8367 0.257812 40.4862 0.257812H34.4476C32.751 0.257812 31.0637 0.388681 29.4232 0.631721C27.1377 0.982258 25.7029 1.43562 23.9642 2.39843C21.0197 4.0109 19.2296 6.09076 18.6454 8.58191C18.0097 11.2647 18.8323 14.3261 21.0758 17.6865C19.7531 20.3974 18.7669 23.613 18.2154 26.8893C17.6732 26.221 16.9394 25.4591 15.9673 24.6552C16.7618 23.4447 17.0937 21.907 16.888 20.388C16.5982 18.3549 15.341 16.5414 13.3359 15.2842C11.4804 14.1204 8.78825 13.7652 5.3483 14.2045C2.86182 14.527 0.912836 15.1673 0.828707 15.186C0.482843 15.2982 0.239804 15.5973 0.211761 15.9572C0.17437 16.3124 0.361323 16.6536 0.679144 16.8172C2.12336 17.5977 2.30096 18.4951 2.64683 20.2899C2.87117 21.4443 3.14226 22.8838 3.87605 24.6599C4.60984 26.4547 6.01199 27.581 7.91891 27.9129C8.30217 27.9783 8.6901 28.0157 9.0827 28.0157C11.1906 28.0157 13.3593 27.1277 14.7567 25.9919C15.986 27.0062 16.7712 27.9316 17.2058 28.5485C17.561 29.0346 17.7573 29.4085 17.8602 29.6188C17.7667 30.619 17.7199 31.6052 17.7199 32.5774C17.7199 36.8539 18.5659 41.0043 20.2532 44.9163C21.875 48.6881 24.2026 52.0766 27.1611 54.9931C30.1243 57.9049 33.5736 60.1857 37.4108 61.7795C41.3882 63.4294 45.6134 64.2707 49.9647 64.2707C54.3161 64.2707 58.5365 63.4387 62.5187 61.7795C66.3559 60.1857 69.8052 57.8955 72.7684 54.9931C75.7316 52.0813 78.0545 48.6928 79.6763 44.9163C81.3542 41.0043 82.2095 36.8539 82.2095 32.5774C82.2095 28.3008 81.3635 24.1505 79.6763 20.2385V20.2104L79.6716 20.2151Z" fill="white"/>
</svg>
