<svg width="743" height="656" viewBox="0 0 743 656" fill="none" xmlns="http://www.w3.org/2000/svg">
<g filter="url(#filter0_d_3_314)">
<path d="M405.511 43.4228C398.598 31.5882 386.903 25.1329 374.83 24.1974C372.605 23.9635 370.379 23.9635 368.154 24.1974C356.081 25.1797 344.386 31.6349 337.521 43.4228L35.3241 561.012C27.2278 574.811 28.885 590.481 36.7918 602.097C38.0702 603.922 39.4906 605.699 41.053 607.29C48.013 614.493 57.8137 619.171 69.3189 619.171L673.681 618.672C685.186 618.672 694.987 613.994 701.947 606.791C703.509 605.2 704.93 603.423 706.208 601.598C714.115 589.998 715.772 574.327 707.676 560.513L405.511 43.4228Z" fill="white"/>
</g>
<defs>
<filter id="filter0_d_3_314" x="0" y="0.0219727" width="743" height="655.149" filterUnits="userSpaceOnUse" color-interpolation-filters="sRGB">
<feFlood flood-opacity="0" result="BackgroundImageFix"/>
<feColorMatrix in="SourceAlpha" type="matrix" values="0 0 0 0 0 0 0 0 0 0 0 0 0 0 0 0 0 0 127 0" result="hardAlpha"/>
<feOffset dy="6"/>
<feGaussianBlur stdDeviation="15"/>
<feComposite in2="hardAlpha" operator="out"/>
<feColorMatrix type="matrix" values="0 0 0 0 0 0 0 0 0 0 0 0 0 0 0 0 0 0 0.2 0"/>
<feBlend mode="normal" in2="BackgroundImageFix" result="effect1_dropShadow_3_314"/>
<feBlend mode="normal" in="SourceGraphic" in2="effect1_dropShadow_3_314" result="shape"/>
</filter>
</defs>
</svg>
