<svg width="130" height="139" viewBox="0 0 130 139" fill="none" xmlns="http://www.w3.org/2000/svg">
<path opacity="0.75" d="M0.966794 100.617C17.0958 110 16.4948 109.772 17.242 109.772C18.6876 109.772 18.9475 108.697 20.9615 105.194L24.9735 107.833C21.1402 113.209 24.7299 118.862 29.6676 119.334C27.9459 124.27 32.0066 129.32 37.2205 128.587C37.5453 133.507 42.7592 136.732 47.3722 134.321C49.2563 139.697 56.3381 140.658 59.6354 136.064L60.6587 134.631C65.8564 136.7 75.4396 139.811 78.6556 134.973C79.5652 133.621 79.955 132.057 79.8413 130.526C83.6259 130.591 86.7769 127.724 86.9394 123.83C91.13 124.889 95.2881 121.957 95.5805 117.493C100.941 119.171 106.073 114.089 104.254 108.599L108.51 104.266C111.157 108.859 111.32 109.772 112.765 109.772C113.545 109.772 112.944 109.967 129.057 100.617C129.966 100.095 130.259 98.9386 129.755 98.0264L106.333 57.2352C105.813 56.3229 104.66 56.0134 103.751 56.5347L88.4012 65.4456C87.4916 65.9669 87.1992 67.1235 87.7028 68.0357L90.8539 73.5256C89.0022 74.1121 87.0043 74.0795 85.1527 73.4116C69.4622 67.6448 74.4 68.1498 55.9321 70.968C52.4399 71.5056 49.4512 73.5582 47.6645 76.6208C47.3234 77.0769 47.8594 76.9629 44.7084 76.9629C43.0029 76.9629 42.4831 76.409 38.8772 73.9655L42.2719 68.052C42.7917 67.1398 42.4831 65.9994 41.5735 65.4619C25.1197 55.9157 25.8831 56.0786 24.7948 56.3718C24.3238 56.5021 23.9015 56.8117 23.6416 57.2515L0.252111 98.0427C-0.267655 98.9549 0.0409691 100.095 0.95056 100.633L0.966794 100.617ZM38.0976 67.7914L16.5598 105.308L4.49146 98.3033L26.0293 60.7865L38.0976 67.7914ZM50.9293 78.5756C52.115 76.4742 54.1616 75.0569 56.533 74.6985C74.6112 71.9454 68.975 71.4893 83.8857 76.9792C86.7932 78.0381 89.9605 77.9892 92.7867 76.8651L106.577 100.877L102.11 105.406C101.525 104.934 101.948 105.227 70.0145 84.7986C67.838 83.4139 65.1579 83.0229 62.689 83.756C58.1898 85.0755 59.0994 84.652 53.5606 91.217C51.579 93.5628 48.3305 94.4588 45.4393 93.4651L41.4761 91.6568C41.2162 91.5102 50.507 79.3576 50.9456 78.5756H50.9293ZM104.01 60.7702L125.548 98.2707L113.48 105.276C113.123 104.657 109.744 98.7757 91.9421 67.7588L104.01 60.7539V60.7702ZM38.3737 89.2458C36.8794 91.2496 37.6428 94.1167 39.8843 95.1267C43.344 96.6906 43.9612 96.9838 44.0749 97.0164C48.4604 98.564 53.4145 97.2281 56.4031 93.6605C61.6495 87.4376 60.3338 88.3825 63.7286 87.3887C65.1579 86.9652 66.7172 87.1933 67.9679 87.9915L99.43 108.126C100.892 109.12 101.282 111.14 100.307 112.606C99.3163 114.089 97.3347 114.463 95.8566 113.47L76.4791 103.419C74.2538 102.262 72.5159 105.65 74.7411 106.791L91.3899 115.425C93.0954 118.406 89.6357 121.631 86.8419 119.725C86.6145 119.579 86.8419 119.693 70.8429 112.639C68.5527 111.629 67.0421 115.099 69.3161 116.109L82.765 122.055C84.373 125.101 80.8808 128.05 78.1845 126.225C77.9084 126.03 78.1846 126.176 65.7427 121.305C64.3783 120.768 62.9489 121.924 63.1926 123.391C62.0393 121.631 60.2526 120.475 57.9949 120.263C59.5542 115.669 56.127 110.88 51.2054 110.994C51.7414 104.624 44.2536 100.975 39.5919 105.227C38.2438 102.36 35.1901 100.812 32.1528 101.317C29.7326 101.724 28.4657 102.979 27.1825 104.787L22.8619 101.936L37.0256 77.2724C39.998 79.2761 41.5898 80.726 44.6596 80.7586L38.3899 89.2621V89.2296L38.3737 89.2458ZM67.773 133.083C66.4573 132.774 64.4595 132.041 62.9164 131.438C64.5569 129.125 64.7031 126.616 63.7611 124.401C64.1509 124.775 63.7611 124.547 75.4558 129.125C76.2679 130.216 76.3167 131.682 75.537 132.839C75.001 133.653 72.6458 134.224 67.7892 133.067L67.773 133.083ZM58.401 131.259C56.6955 133.67 56.1595 134.892 54.454 135.168C51.4328 135.657 49.7599 132.057 51.3029 130.135L54.7626 125.264C56.5655 122.804 60.545 124.026 60.545 127.17C60.545 128.75 59.5542 129.467 58.3847 131.243L58.401 131.259ZM46.7712 129.988C45.7317 131.438 43.75 131.764 42.3044 130.738C40.8101 129.679 40.5502 127.659 41.5573 126.225L48.769 116.06C49.7923 114.626 51.7739 114.268 53.2358 115.31C54.7301 116.386 54.9738 118.422 53.9829 119.807L46.7712 129.956V129.988ZM33.6471 119.758C42.207 107.752 41.9796 107.491 43.75 107.198C45.6992 106.888 47.4696 108.403 47.4696 110.374C47.4696 111.759 47.2098 111.759 42.3694 118.569C38.7473 123.651 38.4874 124.515 36.7657 124.808C34.0207 125.264 31.9416 122.136 33.6471 119.741V119.758ZM27.7185 110.489C30.6747 106.351 31.032 105.308 32.77 105.031C35.4663 104.575 37.5616 107.556 35.9211 110.065L32.9162 114.268C31.8929 115.701 29.9113 116.06 28.4494 115.001C27.0201 113.991 26.6952 111.922 27.7185 110.505V110.489ZM37.3667 16.1345H36.3921C33.8907 16.1345 33.8907 12.3389 36.3921 12.3389H41.8496C42.8892 12.3389 43.7338 13.186 43.7338 14.2285V19.7184C43.7338 22.2271 39.9493 22.2271 39.9493 19.7184V19.2623C30.5123 37.8985 44.0099 60.3141 65.0117 60.3141C71.525 60.3141 77.876 58.0171 82.8949 53.8631C84.8278 52.2666 87.2317 55.1826 85.2989 56.7791C79.5977 61.5033 72.4022 64.1098 64.9955 64.1098C40.4853 64.1098 25.2171 37.3446 37.3504 16.1345H37.3667ZM44.7246 7.3377C65.2879 -9.75093 96.8961 4.86156 96.8961 32.0665C96.8961 37.7193 95.4181 43.1603 92.6568 47.9823H93.6314C96.1327 47.9823 96.1327 51.7779 93.6314 51.7779H88.1738C87.1343 51.7779 86.2897 50.9308 86.2897 49.8882V44.3984C86.2897 41.8896 90.0742 41.8896 90.0742 44.3984V44.8545C92.0721 40.9122 93.1116 36.5627 93.1116 32.0665C93.1116 8.03819 65.2229 -4.76607 47.1285 10.2537C45.1956 11.8501 42.7917 8.93416 44.7246 7.3377ZM62.7053 52.6087H67.3182C69.6409 52.6087 71.5413 50.719 71.5413 48.3895C71.5413 45.4898 71.0053 47.2655 74.2051 44.9848C75.8618 45.9622 77.0151 46.8745 78.9967 46.3369C81.157 45.7505 81.5793 44.3169 83.8857 40.3421C85.039 38.322 84.3405 35.7319 82.3264 34.5753L80.7347 33.6467C81.157 29.6718 79.8088 31.0728 82.3264 29.623C84.3405 28.4664 85.0552 25.8762 83.8857 23.8399L81.563 19.8324C80.426 17.8287 77.8759 17.0794 75.7969 18.2686C73.328 19.7021 75.1147 19.2786 71.5575 17.6658V15.7924C71.5575 13.4629 69.6734 11.5732 67.3344 11.5732H62.7215C60.3988 11.5732 58.4984 13.4629 58.4984 15.7924C58.4984 18.6921 59.0344 16.9165 55.8346 19.1971C54.1779 18.2197 53.0084 17.3074 51.043 17.845C48.8827 18.4315 48.4604 19.865 46.154 23.8399C45.0007 25.8599 45.6992 28.4501 47.697 29.6067L49.305 30.5352C48.8827 34.5101 50.2309 33.1091 47.7133 34.559C45.6992 35.7156 44.9845 38.3058 46.154 40.3421L48.4767 44.3495C49.6299 46.3695 52.1963 47.0863 54.2428 45.9134C56.7117 44.4798 54.925 44.9034 58.4822 46.5161V48.3895C58.4822 50.719 60.3663 52.6087 62.7053 52.6087ZM55.0387 41.0588C52.0988 42.7693 52.2612 42.7367 52.0338 42.6716C51.7739 42.6064 51.9364 42.753 49.435 38.4361C49.1426 37.9148 49.5974 37.8333 52.31 36.2532C54.1941 35.1617 52.4561 33.9399 53.2195 29.8673C53.3657 29.0854 53.0084 28.2872 52.31 27.8799L49.5974 26.2997C49.0614 25.9902 49.3213 25.8762 51.7577 21.6733C52.4074 20.5166 55.2011 24.6055 57.2315 22.8787C60.2689 20.256 62.283 21.0216 62.283 18.8876C62.283 15.8087 62.1205 15.3037 62.7215 15.3037C67.6593 15.3037 67.773 15.1571 67.773 15.7273C67.773 18.3989 67.3832 20.0768 69.0399 20.6632C72.8082 21.9991 73.1656 24.1331 75.0172 23.0579C77.9084 21.3637 77.7947 21.3963 78.0221 21.4452C78.282 21.5103 78.1196 21.3637 80.621 25.6807C80.9133 26.1857 80.4748 26.2672 77.746 27.8636C75.8619 28.9551 77.5998 30.1768 76.8364 34.2494C76.6902 35.0314 77.0476 35.8296 77.746 36.2369C80.491 37.8496 80.8971 37.9311 80.6372 38.4035C78.0871 42.8182 78.282 42.5738 78.0221 42.6553C77.7785 42.7205 77.9572 42.7693 75.0172 41.0425C73.1981 39.9674 72.8082 42.1014 69.0399 43.4372C68.2765 43.6979 67.773 44.4147 67.773 45.2129V48.3569C67.773 48.9271 67.5781 48.7805 62.7215 48.7805C62.1368 48.7805 62.283 48.4221 62.283 45.1966C62.283 43.0788 60.2851 43.8119 57.2315 41.2055C56.6143 40.6679 55.7372 40.6027 55.055 41.01L55.0387 41.0588ZM65.0117 39.0551C68.845 39.0551 71.9474 35.9274 71.9474 32.0665C71.9474 28.2057 68.8288 25.0942 65.0117 25.0942C61.1947 25.0942 58.0761 28.222 58.0761 32.0665C58.0761 35.9111 61.1947 39.0551 65.0117 39.0551ZM65.0117 28.8899C66.7497 28.8899 68.1791 30.3235 68.1791 32.0665C68.1791 33.8096 66.7659 35.2595 65.0117 35.2595C63.2575 35.2595 61.8444 33.8259 61.8444 32.0665C61.8444 30.3072 63.2575 28.8899 65.0117 28.8899Z" fill="white"/>
</svg>
