<svg width="100" height="127" viewBox="0 0 100 127" fill="none" xmlns="http://www.w3.org/2000/svg">
<path opacity="0.75" d="M94.6631 0H16.1241C15.6321 0 15.159 0.229553 14.8372 0.61214L0.359576 18.3451C0.359576 18.3451 0.246026 18.4981 0.208176 18.5746C0.170326 18.6703 0.132475 18.7468 0.0946253 18.8424V18.8807C0.0946253 18.8807 0.0378501 19.0529 0.0189251 19.1294V19.1676C0.0189251 19.1676 0 19.3398 0 19.4355V121.625C0 124.59 2.38456 127 5.31794 127H94.6821C97.6154 127 100 124.59 100 121.625V5.37536C100 2.4103 97.6154 0 94.6821 0H94.6631ZM14.894 5.85359V15.7244C14.894 16.8339 14.0045 17.7329 12.9069 17.7329H5.18547L14.894 5.85359ZM96.6503 121.606C96.6503 122.715 95.7608 123.595 94.6631 123.595H5.29902C4.20136 123.595 3.31188 122.696 3.31188 121.586V21.1188H12.9069C15.8403 21.1188 18.2248 18.7085 18.2248 15.7435V3.3859H94.6442C95.7419 3.3859 96.6313 4.28498 96.6313 5.39449V121.625L96.6503 121.606ZM88.6828 107.832C88.6828 108.77 87.9258 109.535 86.9985 109.535H82.6079C81.6805 109.592 80.8857 108.884 80.8289 107.947C80.7721 107.01 81.4724 106.206 82.3997 106.149C82.4754 106.149 82.5511 106.149 82.6079 106.149H86.9985C87.9258 106.149 88.6639 106.895 88.6639 107.832H88.6828ZM76.779 107.832C76.779 108.77 76.0219 109.535 75.0946 109.535H42.8274C41.9001 109.592 41.1052 108.884 41.0484 107.947C40.9917 107.01 41.6919 106.206 42.6192 106.149C42.6949 106.149 42.7706 106.149 42.8274 106.149H75.0946C76.0219 106.149 76.76 106.895 76.76 107.832H76.779ZM87.0174 66.1494H70.7986C70.7986 66.1494 70.704 66.0346 70.6472 65.9773L66.0863 61.0993C64.3641 59.2628 61.4875 59.1672 59.6518 60.908L54.1635 66.1494H42.8274C41.9001 66.1494 41.1431 66.9146 41.1431 67.8519C41.1431 68.7893 41.9001 69.5545 42.8274 69.5545H50.6245L27.2142 91.8976C27.1007 91.9932 27.0061 92.108 26.9304 92.2228C26.9114 92.261 26.8925 92.2993 26.8547 92.3376C20.7608 90.1759 14.0802 93.4279 11.9417 99.6067C9.80318 105.766 13.0204 112.519 19.1332 114.681C25.2271 116.842 31.9076 113.59 34.0462 107.412C34.3679 106.474 34.5761 105.499 34.6518 104.523L37.2256 103.911H37.2445C37.5284 103.834 37.7933 103.7 38.0015 103.49L42.7706 98.9372H87.0174C87.9447 98.9946 88.7396 98.2868 88.7964 97.3494C88.8531 96.4121 88.1529 95.6087 87.2256 95.5513C87.1499 95.5513 87.0742 95.5513 87.0174 95.5513H46.3285L62.4148 80.1904H75.0946C76.0219 80.1904 76.779 79.4252 76.779 78.4879C76.779 77.5505 76.0219 76.7854 75.0946 76.7854H65.9538L70.458 72.5004C71.2718 71.7161 71.7638 70.6831 71.8584 69.5545H87.0174C87.9447 69.5545 88.7017 68.7893 88.7017 67.8519C88.7017 66.9146 87.9447 66.1494 87.0174 66.1494ZM26.9114 102.878L27.8955 99.5685L29.0121 96.3165L33.6488 101.271L26.9304 102.878H26.9114ZM22.9939 111.926C18.3762 111.926 14.6291 108.158 14.6291 103.49C14.6291 98.8224 18.3573 95.0348 22.975 95.0348C23.9213 95.0348 24.8486 95.1878 25.7381 95.513L24.7161 98.4972C24.7161 98.4972 24.7161 98.5355 24.6972 98.5737L22.8804 104.733C22.6154 105.632 23.1264 106.57 24.0159 106.838C24.2998 106.914 24.5836 106.933 24.8675 106.857L31.1696 105.346C30.299 109.191 26.9304 111.945 23.0129 111.945L22.9939 111.926ZM68.1681 70.0136L36.9228 99.8363L30.7154 93.1792L61.9796 63.3565C62.2067 63.127 62.5284 63.0122 62.8501 63.0313C63.1718 63.0313 63.4746 63.1844 63.7017 63.4139L68.2627 68.2919C68.7169 68.7893 68.698 69.5545 68.2059 70.0136H68.1681ZM88.6828 78.4496C88.6828 79.387 87.9258 80.1521 86.9985 80.1521H82.6079C81.6805 80.1521 80.9235 79.387 80.9235 78.4496C80.9235 77.5123 81.6805 76.7471 82.6079 76.7471H86.9985C87.9258 76.7471 88.6639 77.5123 88.6639 78.4305L88.6828 78.4496ZM22.9939 85.9292C29.4474 85.9292 34.6896 80.6495 34.6896 74.1072C34.6896 71.9456 34.103 69.8414 33.0053 68.005L35.2006 65.5947C35.863 64.9443 35.8819 63.873 35.2574 63.2035C34.6139 62.534 33.5541 62.5148 32.8917 63.1461C32.835 63.2035 32.7971 63.2418 32.7403 63.2991L30.8668 65.3651C26.0977 60.9654 18.698 61.3097 14.3263 66.1303C9.95458 70.9509 10.3142 78.4305 15.0833 82.8494C17.2407 84.8388 20.0606 85.9292 22.975 85.9292H22.9939ZM22.9939 65.6521C25.0757 65.6521 27.0818 66.4364 28.6147 67.8519L23.1832 73.8394L19.8335 71.6969C19.0765 71.1422 18.0356 71.3144 17.4868 72.0795C16.9379 72.8447 17.1082 73.8968 17.8653 74.4516C17.922 74.4898 17.9788 74.5281 18.0545 74.5664L22.5965 77.4549C23.2778 77.8949 24.1673 77.7801 24.7161 77.1679L30.6397 70.6448C32.5322 74.9107 30.6397 79.9035 26.4194 81.8164C22.1991 83.7293 17.2597 81.8164 15.3671 77.5505C13.4746 73.2847 15.3671 68.2919 19.5874 66.379C20.6662 65.9007 21.8206 65.6329 22.9939 65.6329V65.6521ZM88.6828 38.4692C88.6828 39.4065 87.9258 40.1717 86.9985 40.1717H42.8085C41.8811 40.1717 41.1241 39.4065 41.1241 38.4883C41.1241 37.551 41.8811 36.7858 42.7896 36.7858H86.9796C87.9069 36.7858 88.645 37.551 88.645 38.4883L88.6828 38.4692ZM88.6828 49.086C88.6828 50.0233 87.9258 50.7885 86.9985 50.7885H82.6079C81.6805 50.7885 80.9235 50.0233 80.9235 49.086C80.9235 48.1487 81.6805 47.3835 82.6079 47.3835H86.9985C87.9258 47.3835 88.6639 48.1487 88.6639 49.0669L88.6828 49.086ZM41.1431 49.086C41.1431 48.1487 41.9001 47.3835 42.8274 47.3835H75.0946C76.0219 47.3835 76.779 48.1487 76.779 49.086C76.779 50.0233 76.0219 50.7885 75.0946 50.7885H42.8274C41.9001 50.7885 41.162 50.0233 41.162 49.086H41.1431ZM22.9939 56.5656C29.4474 56.5656 34.6896 51.2668 34.6896 44.7436C34.6896 42.582 34.103 40.4778 33.0053 38.6414L35.2006 36.2311C35.863 35.5807 35.8819 34.5094 35.2574 33.8399C34.6329 33.1704 33.5541 33.1512 32.8917 33.7825C32.835 33.8399 32.7971 33.8781 32.7403 33.9355L30.8668 36.0015C26.0977 31.6017 18.698 31.9461 14.3263 36.7667C9.95458 41.5873 10.3142 49.0669 15.0833 53.4858C17.2407 55.4752 20.0606 56.5847 22.975 56.5847L22.9939 56.5656ZM22.9939 36.2884C25.0757 36.2884 27.0818 37.0728 28.6147 38.4883L23.1643 44.4758L19.8145 42.3333C19.0575 41.7786 18.0167 41.9507 17.4678 42.7159C16.919 43.4811 17.0893 44.5332 17.8463 45.088C17.9031 45.1262 17.9599 45.1645 18.0356 45.2027L22.5776 48.1104C23.2589 48.5504 24.1484 48.4356 24.6972 47.8235L30.6207 41.3003C32.5132 45.5662 30.6207 50.559 26.4005 52.4719C22.1802 54.3848 17.2407 52.4719 15.3482 48.2061C13.4557 43.9402 15.3482 38.9474 19.5685 37.0345C20.6472 36.5563 21.8017 36.2884 22.975 36.3076L22.9939 36.2884Z" fill="white"/>
</svg>
